<svg id="svg" version="1.1" xmlns="http://www.w3.org/2000/svg" xmlns:xlink="http://www.w3.org/1999/xlink" width="400" height="400" viewBox="0, 0, 400,400"><g id="svgg"><path id="path0" d="M306.200 43.200 C 306.051 43.442,306.596 43.600,307.576 43.600 C 308.469 43.600,309.200 43.420,309.200 43.200 C 309.200 42.980,308.581 42.800,307.824 42.800 C 307.067 42.800,306.336 42.980,306.200 43.200 M154.600 44.400 L 153.800 44.744 154.600 44.744 C 155.040 44.744,155.760 44.589,156.200 44.400 L 157.000 44.056 156.200 44.056 C 155.760 44.056,155.040 44.211,154.600 44.400 M155.028 45.147 C 153.912 45.388,153.890 45.433,154.557 46.100 C 155.224 46.767,155.223 46.801,154.529 46.828 C 153.877 46.853,153.884 46.889,154.600 47.173 C 155.668 47.595,156.405 47.278,156.114 46.521 C 155.928 46.037,156.081 45.963,156.839 46.173 C 157.695 46.409,157.718 46.387,157.052 45.972 C 156.447 45.596,156.409 45.440,156.852 45.159 C 157.506 44.745,156.911 44.741,155.028 45.147 M305.743 45.800 C 306.073 46.130,306.671 46.413,307.071 46.428 C 307.727 46.453,307.720 46.491,307.000 46.800 C 306.560 46.989,306.410 47.156,306.667 47.172 C 306.924 47.187,307.449 47.321,307.833 47.468 C 308.277 47.639,308.436 47.581,308.268 47.310 C 308.123 47.076,308.294 46.773,308.647 46.637 C 309.802 46.194,308.470 45.200,306.722 45.200 C 305.318 45.200,305.210 45.267,305.743 45.800 M349.689 81.423 C 348.957 81.936,348.800 82.427,348.800 84.209 C 348.800 86.738,348.286 87.200,345.475 87.200 C 343.311 87.200,342.703 87.825,342.413 90.345 C 342.216 92.062,342.111 92.208,341.000 92.303 C 337.529 92.600,336.951 93.016,336.849 95.295 C 336.733 97.865,336.687 97.914,334.200 98.039 C 331.254 98.188,331.200 98.234,331.200 100.619 C 331.200 103.306,331.009 103.431,326.700 103.566 C 325.627 103.599,325.600 103.659,325.600 105.976 C 325.600 108.715,325.589 108.727,322.803 108.960 C 320.167 109.180,319.905 109.456,319.847 112.073 L 319.800 114.200 318.000 114.305 C 314.422 114.515,314.400 114.533,314.400 117.208 L 314.400 119.600 312.500 119.646 C 309.735 119.713,309.610 119.742,309.193 120.400 C 308.984 120.730,308.809 121.934,308.806 123.076 C 308.799 125.473,308.786 125.487,306.399 125.640 C 304.591 125.755,302.800 126.566,302.800 127.270 C 302.800 127.477,302.935 127.563,303.100 127.460 C 303.265 127.358,303.341 128.614,303.268 130.253 C 303.180 132.234,303.347 133.853,303.768 135.087 C 304.116 136.108,304.403 137.675,304.406 138.571 C 304.410 139.506,304.545 139.991,304.724 139.709 C 304.896 139.439,304.961 140.969,304.869 143.109 C 304.777 145.249,304.524 147.113,304.306 147.252 C 304.072 147.400,304.133 147.578,304.455 147.685 C 304.907 147.836,305.000 152.030,305.000 172.313 C 305.000 191.337,305.111 196.871,305.500 197.260 C 305.900 197.660,306.008 197.644,306.039 197.180 C 306.061 196.861,306.314 197.770,306.602 199.200 C 307.358 202.955,307.841 213.600,307.256 213.600 C 306.934 213.600,306.799 215.453,306.798 219.900 C 306.795 227.215,306.379 233.506,305.998 232.000 C 305.482 229.958,305.167 247.705,305.478 261.322 C 305.788 274.871,305.808 275.129,306.014 268.200 L 306.228 261.000 306.320 268.600 C 306.373 272.929,306.558 275.971,306.750 275.667 C 306.972 275.317,307.181 275.837,307.360 277.181 C 307.689 279.666,308.372 279.479,308.472 276.876 C 308.512 275.844,308.661 279.680,308.804 285.400 C 308.946 291.120,309.307 297.569,309.605 299.731 C 309.964 302.339,310.011 303.753,309.744 303.931 C 309.523 304.079,309.226 304.514,309.084 304.897 C 308.849 305.534,308.704 305.510,307.393 304.621 C 305.704 303.475,302.375 302.655,300.400 302.899 C 299.260 303.040,299.374 303.084,301.016 303.136 L 303.031 303.200 304.465 305.902 C 305.253 307.389,306.023 309.512,306.175 310.621 C 306.603 313.727,306.703 313.799,310.557 313.804 C 312.418 313.806,314.075 313.941,314.237 314.104 C 314.400 314.267,313.553 314.400,312.356 314.400 C 310.936 314.400,309.834 314.641,309.189 315.094 C 307.110 316.552,261.286 315.484,245.155 313.602 C 243.260 313.381,240.676 313.200,239.412 313.200 C 238.148 313.200,235.559 312.942,233.657 312.627 C 231.756 312.312,226.510 311.853,222.000 311.607 C 217.490 311.361,212.536 310.999,210.992 310.803 C 207.338 310.337,194.308 309.670,180.000 309.215 C 167.444 308.816,166.607 308.708,167.218 307.566 C 167.634 306.789,167.715 306.836,165.000 306.262 C 164.560 306.169,165.460 306.048,167.000 305.994 C 169.344 305.911,169.572 305.847,168.400 305.600 L 167.000 305.305 168.600 305.193 L 170.200 305.080 168.400 304.800 L 166.600 304.520 168.143 304.460 C 169.333 304.414,169.633 304.263,169.456 303.803 C 169.255 303.278,172.331 303.193,194.914 303.099 C 209.430 303.038,200.384 302.952,174.111 302.902 L 127.622 302.812 127.164 303.667 C 126.480 304.945,126.894 310.662,127.808 312.573 C 128.352 313.711,128.428 314.191,128.080 314.307 C 127.816 314.395,127.600 314.776,127.600 315.153 C 127.600 315.531,127.401 316.039,127.157 316.283 C 126.913 316.527,126.592 317.323,126.443 318.054 C 126.251 318.991,125.646 319.776,124.386 320.721 C 123.403 321.457,122.205 322.811,121.722 323.730 C 121.239 324.648,120.429 325.792,119.922 326.272 C 117.592 328.474,116.927 329.217,115.896 330.765 C 115.288 331.677,114.388 332.577,113.896 332.766 C 112.840 333.169,110.918 335.545,109.822 337.800 C 109.395 338.680,108.532 339.957,107.905 340.637 L 106.766 341.874 108.372 343.282 C 111.130 345.699,117.857 346.135,160.000 346.625 C 170.010 346.741,182.070 347.013,186.800 347.229 C 221.393 348.807,334.065 349.437,339.981 348.085 C 341.373 347.767,342.902 347.857,346.981 348.497 C 349.851 348.947,353.460 349.335,355.000 349.358 L 357.800 349.400 358.047 319.400 C 358.477 267.103,358.433 84.347,357.990 82.745 C 357.520 81.046,356.944 80.813,353.189 80.805 C 351.466 80.802,350.276 81.012,349.689 81.423 M356.632 89.061 C 356.535 89.314,356.804 89.612,357.230 89.724 C 358.291 90.001,358.307 94.796,357.248 94.806 C 356.693 94.811,356.685 94.866,357.188 95.184 C 357.875 95.618,357.746 95.794,356.450 96.193 C 355.816 96.388,355.588 96.344,355.764 96.059 C 355.949 95.759,355.682 95.752,354.866 96.037 C 351.455 97.226,350.005 94.176,352.078 90.173 C 352.912 88.563,357.225 87.509,356.632 89.061 M349.194 97.500 C 349.176 98.377,348.412 98.959,348.406 98.100 C 348.403 97.605,348.580 97.200,348.800 97.200 C 349.020 97.200,349.197 97.335,349.194 97.500 M346.662 106.204 C 347.704 106.886,348.217 108.246,347.688 108.919 C 346.836 110.004,346.751 112.930,346.786 139.971 C 346.851 188.874,345.473 226.448,342.817 248.200 C 342.602 249.960,342.290 253.110,342.125 255.200 L 341.823 259.000 341.530 256.400 C 341.369 254.970,341.069 251.879,340.862 249.531 C 340.655 247.184,340.380 245.091,340.250 244.881 C 339.370 243.458,338.000 231.738,337.996 225.614 C 337.994 221.976,337.732 216.750,337.413 214.000 C 337.094 211.250,336.637 205.850,336.396 202.000 C 336.156 198.150,335.786 193.650,335.575 192.000 C 334.952 187.131,334.484 175.311,334.212 157.600 C 333.948 140.424,334.093 137.670,335.525 132.600 C 336.702 128.434,337.019 125.200,336.251 125.200 C 335.810 125.200,335.610 125.722,335.522 127.100 L 335.400 129.000 332.953 129.118 C 330.287 129.246,330.596 128.967,328.778 132.893 C 328.051 134.463,326.888 135.600,326.008 135.600 C 324.773 135.600,324.786 135.355,324.588 161.079 C 324.222 208.367,323.057 253.483,321.780 269.800 C 321.453 273.980,320.889 281.630,320.527 286.800 C 319.292 304.436,319.351 303.781,319.270 300.770 C 319.232 299.324,318.750 296.638,318.200 294.800 C 317.650 292.962,317.196 290.816,317.190 290.030 C 317.185 289.243,317.013 287.970,316.809 287.200 C 313.937 276.395,314.143 277.890,313.638 264.200 C 312.632 236.960,311.489 148.280,312.005 137.521 C 312.196 133.539,312.287 133.162,313.305 132.099 C 314.129 131.239,314.400 130.556,314.400 129.340 C 314.400 127.306,315.253 126.487,317.725 126.148 C 319.808 125.863,320.258 125.494,320.560 123.831 C 320.815 122.424,322.278 120.800,323.290 120.800 C 324.643 120.800,326.298 119.660,326.581 118.534 C 326.902 117.254,328.546 115.606,329.521 115.587 C 330.531 115.567,332.000 114.188,332.000 113.259 C 332.000 112.813,332.180 112.336,332.400 112.200 C 332.620 112.064,332.800 111.608,332.800 111.187 C 332.800 110.327,334.649 109.203,336.080 109.194 C 337.281 109.186,337.830 108.798,338.166 107.724 C 338.841 105.557,344.209 104.597,346.662 106.204 M165.049 159.207 C 164.392 159.869,164.327 160.380,164.532 163.282 C 165.012 170.100,165.752 172.123,168.372 173.786 L 169.800 174.693 169.805 181.446 C 169.808 185.161,169.967 198.910,170.160 212.000 C 170.534 237.454,170.435 239.209,168.541 240.593 C 165.896 242.528,170.242 243.193,186.870 243.397 C 233.055 243.965,236.553 244.054,238.400 244.697 C 240.707 245.501,244.324 245.467,245.949 244.626 C 246.644 244.267,248.110 243.940,249.206 243.899 C 250.303 243.858,251.200 243.685,251.200 243.513 C 251.200 243.341,251.417 243.245,251.682 243.300 C 251.947 243.355,252.194 243.175,252.232 242.900 C 252.269 242.625,252.324 242.355,252.352 242.300 C 252.392 242.224,252.434 181.865,252.405 166.700 C 252.401 164.408,252.294 163.996,251.700 163.972 C 251.051 163.946,251.049 163.924,251.681 163.672 C 253.294 163.028,250.706 159.231,248.747 159.366 C 248.116 159.410,247.600 159.339,247.600 159.208 C 247.600 159.077,247.195 158.942,246.700 158.908 C 245.872 158.851,245.856 158.888,246.500 159.367 C 246.885 159.654,247.200 160.074,247.200 160.301 C 247.200 160.813,248.342 161.283,248.839 160.976 C 249.041 160.851,249.488 161.030,249.832 161.374 C 250.399 161.942,250.399 162.000,249.829 162.000 C 249.483 162.000,249.197 161.775,249.194 161.500 C 249.190 161.151,249.099 161.134,248.894 161.443 C 248.732 161.687,248.285 161.838,247.900 161.779 C 247.120 161.658,246.903 162.969,247.629 163.418 C 247.899 163.585,247.761 163.892,247.258 164.245 C 246.687 164.644,246.379 165.467,246.185 167.103 C 245.749 170.788,244.625 172.856,241.947 174.901 C 241.351 175.356,241.342 175.876,241.838 180.786 C 242.210 184.465,242.360 190.930,242.312 201.186 C 242.272 209.579,242.474 220.434,242.770 225.800 C 243.413 237.459,243.422 237.016,242.489 239.100 C 241.735 240.785,241.729 240.788,241.222 239.841 C 240.280 238.081,237.281 237.572,232.400 238.344 C 231.410 238.501,229.880 238.501,229.000 238.346 C 228.120 238.190,224.880 237.756,221.800 237.382 C 218.720 237.008,215.300 236.575,214.200 236.418 L 212.200 236.134 214.200 235.864 C 225.009 234.403,224.890 234.430,227.387 232.879 C 229.475 231.583,230.009 230.984,231.349 228.434 L 232.898 225.486 232.453 222.043 C 232.051 218.941,230.789 198.270,230.667 192.800 C 230.639 191.590,230.810 189.574,231.045 188.321 C 231.526 185.755,231.900 186.290,227.054 182.612 L 225.109 181.136 221.854 181.383 C 218.000 181.676,209.519 180.635,201.000 178.823 C 197.920 178.168,194.770 177.625,194.000 177.616 C 193.230 177.608,191.147 177.312,189.371 176.960 C 185.580 176.207,182.943 177.034,181.400 179.457 C 180.848 180.325,180.186 180.783,179.263 180.938 C 178.527 181.061,177.312 181.630,176.563 182.201 L 175.200 183.241 175.200 181.452 C 175.200 179.818,175.297 179.642,176.322 179.417 C 179.144 178.797,179.552 175.435,177.001 173.823 C 174.960 172.532,172.400 169.610,172.400 168.571 C 172.400 167.673,169.469 164.883,168.188 164.561 C 167.645 164.425,167.187 164.198,167.171 164.057 C 167.122 163.618,167.110 160.227,167.156 159.700 C 167.180 159.425,167.590 159.200,168.067 159.200 C 169.278 159.200,168.861 158.949,167.200 158.678 C 166.146 158.506,165.615 158.636,165.049 159.207 M250.690 163.598 C 250.743 164.299,250.698 164.305,249.973 163.684 C 249.005 162.855,248.981 162.418,249.917 162.662 C 250.311 162.765,250.659 163.186,250.690 163.598 M306.293 174.100 C 306.209 175.035,306.140 174.270,306.140 172.400 C 306.140 170.530,306.209 169.765,306.293 170.700 C 306.377 171.635,306.377 173.165,306.293 174.100 M306.291 237.500 C 306.205 238.325,306.134 237.650,306.134 236.000 C 306.134 234.350,306.205 233.675,306.291 234.500 C 306.378 235.325,306.378 236.675,306.291 237.500 M91.858 265.200 C 92.175 266.925,92.402 267.251,92.394 265.967 C 92.391 265.435,92.211 264.730,91.994 264.400 C 91.718 263.978,91.677 264.215,91.858 265.200 M90.230 268.667 C 90.089 269.034,90.121 269.481,90.300 269.660 C 90.480 269.840,90.664 269.540,90.709 268.993 C 90.804 267.846,90.598 267.706,90.230 268.667 M79.666 280.350 C 79.241 280.620,79.269 280.741,79.803 280.946 C 80.593 281.249,81.213 280.945,81.168 280.276 C 81.146 279.933,81.081 279.939,80.935 280.300 C 80.824 280.575,80.558 280.800,80.343 280.800 C 80.128 280.800,80.064 280.620,80.200 280.400 C 80.499 279.916,80.371 279.904,79.666 280.350 M145.330 325.052 C 147.048 325.288,147.143 325.362,146.739 326.152 C 146.031 327.539,143.086 330.400,142.366 330.400 C 141.998 330.400,141.465 330.680,141.181 331.023 C 140.605 331.717,138.235 332.800,137.293 332.800 C 136.957 332.800,135.764 333.399,134.641 334.132 C 131.609 336.110,126.022 337.648,124.988 336.790 C 124.189 336.127,124.541 335.738,126.226 335.422 C 127.722 335.141,128.800 333.531,128.800 331.577 C 128.800 330.664,130.235 329.235,131.174 329.213 C 132.592 329.180,135.210 327.500,135.457 326.464 C 135.596 325.879,135.786 325.265,135.879 325.100 C 136.083 324.736,142.773 324.702,145.330 325.052 M342.441 335.127 C 342.610 337.028,341.957 340.331,341.367 340.557 C 341.055 340.677,340.800 341.033,340.800 341.348 C 340.800 342.563,337.440 342.835,327.600 342.416 C 322.430 342.196,317.210 341.988,316.000 341.954 C 312.106 341.843,318.861 341.249,326.400 341.039 C 330.543 340.923,333.888 340.621,335.384 340.227 C 336.695 339.882,338.275 339.600,338.894 339.600 C 340.151 339.600,340.800 338.483,340.800 336.320 C 340.800 335.645,341.017 334.369,341.282 333.485 C 341.803 331.744,342.188 332.289,342.441 335.127 " stroke="none" fill="#655d67" fill-rule="evenodd"></path><path id="path1" d="M185.000 54.266 C 183.460 54.326,177.250 54.568,171.200 54.804 C 165.150 55.039,157.410 55.412,154.000 55.631 C 150.590 55.850,141.410 56.194,133.600 56.396 C 121.090 56.719,113.213 57.199,101.800 58.334 L 98.600 58.652 101.000 58.964 C 102.320 59.136,106.550 59.812,110.400 60.466 C 114.250 61.120,119.830 61.806,122.800 61.990 C 141.796 63.168,154.355 65.022,156.262 66.929 C 156.411 67.078,156.998 67.203,157.567 67.206 C 158.873 67.214,161.070 67.994,162.516 68.965 L 163.633 69.714 162.816 70.583 C 162.367 71.060,162.000 71.623,162.000 71.832 C 162.000 72.202,158.603 74.594,157.448 75.037 C 157.085 75.176,156.770 76.137,156.597 77.630 C 156.445 78.934,156.150 80.107,155.941 80.236 C 155.382 80.582,156.358 81.600,157.249 81.600 C 157.717 81.600,158.000 81.883,158.000 82.351 C 158.000 82.764,158.270 83.326,158.600 83.600 C 158.930 83.874,159.200 84.327,159.200 84.606 C 159.200 84.886,159.470 85.218,159.800 85.345 C 161.251 85.901,160.062 86.268,155.300 86.735 C 144.082 87.834,142.428 87.991,138.000 88.375 C 135.470 88.594,129.710 89.054,125.200 89.398 C 99.957 91.320,102.603 90.848,102.209 93.495 C 101.839 95.979,101.546 96.277,99.151 96.607 C 96.828 96.926,96.534 97.374,97.100 99.724 C 97.466 101.242,97.508 101.286,97.552 100.186 C 97.612 98.657,99.247 97.600,101.551 97.600 C 102.951 97.600,103.265 97.434,103.792 96.415 C 104.869 94.333,107.559 93.838,112.328 94.842 C 114.457 95.291,117.910 95.825,120.000 96.029 C 122.090 96.232,125.690 96.662,128.000 96.983 C 134.817 97.930,163.870 98.407,216.470 98.435 C 267.476 98.462,265.851 98.515,267.750 96.746 C 268.191 96.336,268.753 96.000,269.001 96.000 C 269.543 96.000,284.544 81.534,297.893 68.136 C 307.289 58.707,307.572 58.377,307.115 57.372 C 306.110 55.167,304.368 54.767,296.295 54.889 C 292.283 54.950,284.140 54.776,278.200 54.503 C 268.771 54.069,194.892 53.881,185.000 54.266 M282.075 68.204 C 282.703 69.583,281.333 71.042,279.056 71.417 C 277.049 71.748,276.400 72.223,276.400 73.360 C 276.400 76.051,272.730 77.143,272.477 74.527 C 272.105 70.688,280.643 65.063,282.075 68.204 M270.431 79.296 C 270.739 81.203,269.938 82.000,267.711 82.000 C 265.894 82.000,265.600 82.382,265.600 84.744 C 265.600 87.154,264.905 87.448,260.000 87.115 C 257.690 86.958,247.610 86.697,237.600 86.535 C 218.700 86.229,217.364 85.779,234.950 85.642 C 244.675 85.567,252.594 84.852,257.601 83.598 C 258.590 83.350,260.030 82.999,260.800 82.818 C 263.725 82.129,265.175 81.348,266.401 79.803 C 268.622 77.001,270.031 76.824,270.431 79.296 M293.700 298.676 C 294.085 298.776,294.715 298.776,295.100 298.676 C 295.485 298.575,295.170 298.493,294.400 298.493 C 293.630 298.493,293.315 298.575,293.700 298.676 " stroke="none" fill="#dab450" fill-rule="evenodd"></path><path id="path2" d="M42.741 41.868 C 41.608 42.169,41.620 40.643,41.606 188.986 L 41.592 334.171 42.413 336.639 C 44.156 341.875,50.191 342.460,51.667 337.535 L 52.127 336.000 54.490 336.000 C 57.967 336.000,58.400 335.650,58.400 332.837 L 58.400 330.502 60.467 330.303 C 62.869 330.072,63.600 329.349,63.600 327.204 C 63.600 325.424,64.181 324.800,65.836 324.800 C 67.794 324.800,68.912 323.648,69.175 321.359 L 69.400 319.408 71.361 319.128 C 73.820 318.778,74.378 318.220,74.728 315.761 L 75.008 313.800 76.909 313.581 C 79.331 313.302,80.065 312.544,80.302 310.076 L 80.493 308.093 82.514 307.899 C 84.895 307.670,85.400 307.131,85.757 304.443 L 86.014 302.500 88.074 302.302 C 90.424 302.077,91.200 301.345,91.200 299.356 C 91.200 297.179,91.521 296.800,93.366 296.800 C 95.789 296.800,96.529 296.095,96.785 293.543 L 97.000 291.400 98.955 291.175 C 101.348 290.901,102.400 289.801,102.400 287.574 C 102.400 286.107,102.469 286.025,103.900 285.795 C 106.888 285.315,107.234 285.163,107.614 284.164 C 107.826 283.606,108.114 281.392,108.255 279.243 L 108.511 275.337 110.816 274.861 C 112.254 274.564,113.248 274.125,113.460 273.693 C 113.647 273.312,113.847 238.120,113.905 195.489 L 114.010 117.977 114.905 118.489 C 116.219 119.240,268.205 119.241,270.679 118.490 C 272.526 117.929,274.000 116.382,274.000 115.003 C 274.000 114.214,274.262 114.087,276.333 113.870 C 280.119 113.474,280.383 113.206,280.395 109.752 L 280.400 108.104 282.216 107.899 C 284.558 107.635,285.598 106.696,285.606 104.838 C 285.615 102.845,285.916 102.547,288.176 102.298 C 290.431 102.051,291.200 101.302,291.200 99.356 C 291.200 97.158,291.514 96.800,293.443 96.800 C 295.803 96.800,296.800 95.804,296.800 93.447 C 296.800 91.559,297.242 91.218,299.700 91.205 C 301.378 91.197,302.400 89.919,302.400 87.829 L 302.400 86.058 304.611 85.781 C 307.242 85.453,308.000 84.632,308.000 82.111 L 308.000 80.400 309.818 80.400 C 312.236 80.400,313.600 79.123,313.600 76.861 C 313.600 75.149,314.015 74.800,316.051 74.800 C 317.817 74.800,319.200 73.230,319.200 71.226 C 319.200 69.490,319.112 69.549,322.486 69.008 C 324.243 68.726,324.390 68.535,324.740 66.088 L 325.007 64.217 327.192 63.732 C 329.816 63.149,330.400 62.456,330.400 59.924 C 330.400 58.132,330.469 58.000,331.413 58.000 C 335.160 58.000,335.766 56.694,335.787 48.563 C 335.803 42.297,335.684 42.058,332.578 42.086 C 329.875 42.110,329.878 42.161,332.618 43.023 C 333.838 43.407,335.008 44.042,335.218 44.434 C 335.735 45.400,335.719 49.321,335.200 49.000 C 334.980 48.864,334.800 48.936,334.800 49.161 C 334.800 50.018,333.018 51.200,331.725 51.200 C 330.996 51.200,330.400 51.397,330.400 51.637 C 330.400 51.877,330.042 52.528,329.605 53.084 C 329.168 53.639,328.912 54.257,329.035 54.457 C 329.159 54.657,329.021 54.770,328.730 54.710 C 328.438 54.649,328.245 54.825,328.300 55.100 C 328.355 55.375,328.265 55.614,328.100 55.631 C 327.789 55.662,326.768 55.898,325.900 56.139 C 325.625 56.215,324.893 56.485,324.274 56.739 C 323.655 56.992,322.378 57.200,321.436 57.200 C 319.437 57.200,318.761 57.817,318.057 60.288 C 317.628 61.789,317.389 62.030,315.888 62.466 C 313.410 63.186,312.488 63.996,312.189 65.711 C 311.948 67.098,311.776 67.263,310.119 67.706 C 308.100 68.246,306.400 69.929,306.400 71.387 C 306.400 72.104,306.016 72.466,304.700 72.989 C 302.537 73.848,301.200 75.090,301.200 76.241 C 301.200 77.112,299.532 78.800,298.671 78.800 C 297.678 78.800,295.605 80.636,295.603 81.518 C 295.599 82.605,293.940 84.395,292.918 84.413 C 291.972 84.429,290.000 86.186,290.000 87.012 C 290.000 87.890,287.840 89.998,286.931 90.007 C 286.027 90.015,284.400 91.674,284.400 92.587 C 284.400 93.428,282.275 95.600,281.451 95.600 C 280.701 95.600,278.800 97.309,278.800 97.984 C 278.800 99.052,277.395 100.781,276.339 101.013 C 275.172 101.270,273.044 103.402,272.619 104.740 C 272.164 106.173,270.807 106.200,200.000 106.183 C 122.398 106.164,116.389 106.027,111.227 104.162 L 108.254 103.088 107.377 104.187 C 105.714 106.273,105.420 108.212,106.446 110.336 C 106.941 111.361,107.637 113.354,107.992 114.765 C 108.435 116.524,108.851 117.372,109.319 117.465 C 109.693 117.539,110.269 117.655,110.599 117.723 C 111.798 117.970,113.624 120.520,113.572 121.874 C 113.547 122.529,113.507 122.522,113.164 121.800 C 112.859 121.159,112.843 121.198,113.082 122.000 C 113.247 122.550,113.393 137.310,113.407 154.800 C 113.422 172.290,113.335 183.090,113.214 178.800 C 113.045 172.775,112.926 176.188,112.689 193.800 C 112.291 223.461,111.817 243.881,111.628 239.600 L 111.477 236.200 111.178 240.200 C 111.013 242.400,110.847 247.757,110.809 252.105 C 110.761 257.525,110.607 259.928,110.318 259.749 C 110.074 259.599,109.982 259.723,110.098 260.044 C 110.209 260.350,110.484 260.561,110.709 260.514 C 110.934 260.466,111.027 260.776,110.916 261.201 C 110.804 261.627,110.905 262.527,111.141 263.201 C 111.392 263.922,111.410 264.330,111.184 264.190 C 110.973 264.060,110.800 264.173,110.800 264.443 C 110.800 264.713,110.673 264.807,110.519 264.652 C 110.364 264.498,109.811 265.053,109.289 265.886 C 108.687 266.845,108.438 267.058,108.608 266.466 C 108.839 265.659,108.775 265.580,108.138 265.890 C 107.732 266.087,106.446 266.216,105.279 266.177 L 103.158 266.106 101.995 268.409 C 101.356 269.676,100.262 271.137,99.565 271.656 C 98.867 272.175,97.513 273.410,96.556 274.400 C 94.428 276.602,94.562 276.469,87.261 283.600 C 83.995 286.790,80.668 289.924,79.868 290.564 C 79.068 291.204,78.311 292.051,78.185 292.447 C 78.060 292.842,76.782 294.100,75.346 295.243 C 73.909 296.386,72.571 297.751,72.371 298.277 C 72.171 298.803,71.487 299.532,70.851 299.897 C 70.214 300.262,69.178 301.174,68.547 301.923 C 67.916 302.672,66.185 304.484,64.700 305.949 C 63.215 307.414,62.000 308.903,62.000 309.259 C 62.000 310.694,58.936 313.079,56.715 313.373 C 55.563 313.526,54.385 313.846,54.098 314.085 C 52.780 315.178,49.928 311.585,50.005 308.928 C 50.178 303.003,49.875 274.020,49.557 266.000 C 49.327 260.203,49.068 211.940,48.958 154.200 C 48.755 47.752,48.789 49.855,47.239 49.554 C 47.108 49.528,46.213 49.452,45.251 49.384 C 44.288 49.317,43.326 49.086,43.111 48.871 C 42.499 48.259,42.651 44.400,43.287 44.400 C 43.459 44.400,43.555 44.175,43.500 43.900 C 43.445 43.625,43.625 43.445,43.900 43.500 C 44.175 43.555,44.400 43.420,44.400 43.200 C 44.400 42.980,44.535 42.838,44.700 42.885 C 45.359 43.070,47.600 42.394,47.600 42.010 C 47.600 41.611,44.095 41.508,42.741 41.868 M347.900 80.695 C 349.055 80.776,350.945 80.776,352.100 80.695 C 353.255 80.614,352.310 80.548,350.000 80.548 C 347.690 80.548,346.745 80.614,347.900 80.695 M341.852 81.700 C 341.510 82.977,341.543 84.991,341.900 84.633 C 342.065 84.468,342.215 84.213,342.233 84.067 C 342.433 82.429,343.018 81.562,344.143 81.236 L 345.400 80.872 343.747 80.836 C 342.355 80.806,342.055 80.942,341.852 81.700 M357.500 81.533 C 358.298 82.369,358.609 82.321,358.262 81.417 C 358.132 81.078,357.749 80.800,357.413 80.800 C 356.894 80.800,356.908 80.913,357.500 81.533 M338.800 86.365 L 336.600 86.600 336.493 88.200 C 336.282 91.370,336.140 91.600,334.392 91.600 C 333.517 91.600,332.800 91.749,332.800 91.932 C 332.800 92.114,332.395 92.249,331.900 92.232 C 331.062 92.202,330.996 92.379,330.935 94.800 C 330.900 96.230,330.957 97.040,331.061 96.600 C 331.822 93.411,332.733 92.400,334.847 92.400 C 335.954 92.400,336.609 91.654,336.935 90.024 C 337.309 88.156,338.246 87.234,340.067 86.943 C 340.910 86.808,341.600 86.541,341.600 86.349 C 341.600 86.157,341.465 86.029,341.300 86.065 C 341.135 86.101,340.010 86.236,338.800 86.365 M327.000 97.599 C 327.142 97.830,326.856 97.957,326.323 97.899 C 325.449 97.805,325.397 97.938,325.335 100.400 C 325.300 101.830,325.352 102.640,325.451 102.200 C 325.550 101.760,325.719 100.990,325.826 100.490 C 326.141 99.017,327.447 98.000,329.024 98.000 C 329.871 98.000,330.347 97.838,330.200 97.600 C 330.064 97.380,329.233 97.200,328.353 97.200 C 327.390 97.200,326.851 97.359,327.000 97.599 M320.300 103.232 C 319.744 103.556,319.609 104.149,319.644 106.120 L 319.688 108.600 320.035 106.800 C 320.442 104.693,321.568 103.603,323.344 103.594 C 324.302 103.589,324.458 103.496,324.000 103.200 C 323.220 102.696,321.191 102.713,320.300 103.232 M314.700 108.832 C 313.946 109.271,313.745 110.995,314.400 111.400 C 314.620 111.536,314.800 111.389,314.800 111.073 C 314.800 110.757,315.079 110.267,315.419 109.984 C 315.896 109.589,315.924 109.400,315.540 109.163 C 315.266 108.993,315.842 108.935,316.821 109.034 C 318.138 109.166,318.392 109.114,317.800 108.834 C 316.739 108.333,315.559 108.332,314.700 108.832 M308.731 114.991 C 308.395 115.729,308.396 116.319,308.733 117.291 C 309.181 118.587,309.184 118.583,309.020 116.821 C 308.929 115.842,308.993 115.266,309.163 115.540 C 309.400 115.924,309.589 115.896,309.984 115.419 C 310.267 115.079,310.757 114.800,311.073 114.800 C 311.389 114.800,311.536 114.620,311.400 114.400 C 310.901 113.593,309.196 113.970,308.731 114.991 M303.400 120.000 C 303.264 120.220,303.281 120.608,303.438 120.862 C 303.615 121.148,303.548 121.215,303.262 121.038 C 302.952 120.847,302.800 121.148,302.800 121.953 C 302.800 122.613,302.980 123.264,303.200 123.400 C 303.426 123.540,303.600 123.214,303.600 122.652 C 303.600 121.010,304.553 120.346,307.600 119.866 C 308.150 119.780,307.486 119.684,306.124 119.654 C 304.762 119.625,303.536 119.780,303.400 120.000 M301.164 127.311 C 299.609 128.357,298.638 130.113,298.018 133.000 C 297.718 134.397,297.620 159.105,297.694 214.889 L 297.800 294.778 298.641 295.619 C 299.666 296.644,302.797 297.195,302.806 296.353 C 302.890 288.926,302.748 126.615,302.658 126.524 C 302.586 126.453,301.914 126.807,301.164 127.311 M159.722 158.804 C 158.628 159.245,158.190 161.282,158.625 163.903 L 158.940 165.800 159.230 163.668 C 159.584 161.069,160.752 159.681,162.870 159.342 C 163.703 159.209,164.288 158.943,164.169 158.750 C 163.893 158.303,160.874 158.340,159.722 158.804 M249.600 158.800 C 249.600 159.020,249.960 159.200,250.400 159.200 C 250.840 159.200,251.200 159.020,251.200 158.800 C 251.200 158.580,250.840 158.400,250.400 158.400 C 249.960 158.400,249.600 158.580,249.600 158.800 M251.791 159.400 C 251.960 159.840,252.254 160.740,252.443 161.400 C 252.750 162.475,252.768 162.437,252.608 161.035 C 252.509 160.174,252.216 159.274,251.956 159.035 C 251.598 158.706,251.558 158.796,251.791 159.400 M158.893 172.400 C 158.893 173.170,158.975 173.485,159.076 173.100 C 159.176 172.715,159.176 172.085,159.076 171.700 C 158.975 171.315,158.893 171.630,158.893 172.400 M158.984 219.600 C 158.984 229.170,159.036 233.085,159.100 228.300 C 159.163 223.515,159.163 215.685,159.100 210.900 C 159.036 206.115,158.984 210.030,158.984 219.600 M158.587 246.600 C 158.263 250.055,158.612 255.701,159.219 256.835 C 159.916 258.139,162.029 258.200,206.200 258.200 C 250.321 258.200,251.692 258.161,252.190 256.903 C 252.739 255.517,252.899 244.916,252.358 245.800 C 251.609 247.024,251.183 247.187,248.712 247.194 C 247.166 247.198,245.895 247.476,244.791 248.051 C 243.016 248.977,239.748 248.888,239.137 247.897 C 238.695 247.181,225.047 246.870,192.952 246.842 C 178.186 246.830,165.676 246.662,165.152 246.469 C 164.628 246.276,163.315 246.089,162.234 246.053 C 160.356 245.991,159.017 245.420,159.378 244.836 C 159.471 244.685,159.397 244.319,159.213 244.022 C 159.006 243.686,158.769 244.664,158.587 246.600 M109.763 252.800 C 109.763 256.430,109.823 257.915,109.898 256.100 C 109.972 254.285,109.972 251.315,109.898 249.500 C 109.823 247.685,109.763 249.170,109.763 252.800 M274.800 298.191 C 269.358 298.816,187.135 298.976,154.624 298.426 C 131.847 298.040,132.653 297.929,131.598 301.606 C 131.130 303.240,132.916 303.115,134.693 301.388 L 136.044 300.076 138.322 300.875 C 139.575 301.314,140.744 301.927,140.920 302.236 C 141.418 303.114,269.670 303.080,270.398 302.203 C 272.340 299.863,286.783 298.313,294.720 299.594 C 297.285 300.007,297.751 299.987,298.362 299.434 C 298.791 299.046,299.787 298.800,300.931 298.800 C 301.959 298.800,302.800 298.623,302.800 298.408 C 302.800 297.795,300.920 297.474,299.076 297.772 C 298.154 297.921,297.220 298.033,297.000 298.021 C 290.692 297.676,278.471 297.770,274.800 298.191 M298.800 298.600 C 296.974 299.303,296.255 299.293,297.800 298.586 C 298.460 298.283,299.270 298.042,299.600 298.048 C 299.930 298.055,299.570 298.303,298.800 298.600 M278.900 298.682 C 278.405 298.778,277.595 298.778,277.100 298.682 C 276.605 298.587,277.010 298.509,278.000 298.509 C 278.990 298.509,279.395 298.587,278.900 298.682 M295.100 298.676 C 294.715 298.776,294.085 298.776,293.700 298.676 C 293.315 298.575,293.630 298.493,294.400 298.493 C 295.170 298.493,295.485 298.575,295.100 298.676 M120.800 303.092 C 119.843 303.456,119.613 304.065,119.606 306.252 L 119.600 308.304 117.168 308.480 C 114.237 308.692,113.901 309.081,114.133 312.000 L 114.308 314.200 112.054 314.088 C 109.051 313.940,108.691 314.250,108.480 317.168 L 108.304 319.600 106.252 319.606 C 103.413 319.615,103.086 319.922,102.880 322.768 L 102.704 325.200 100.652 325.206 C 97.894 325.214,97.645 325.449,97.345 328.322 L 97.086 330.800 95.043 330.806 C 92.343 330.814,92.131 331.003,91.794 333.704 C 91.480 336.221,91.404 336.280,88.200 336.493 C 86.638 336.597,86.597 336.638,86.493 338.200 C 86.280 341.402,86.152 341.599,84.292 341.605 C 81.554 341.614,80.847 341.946,80.583 343.344 C 80.451 344.047,79.497 345.543,78.418 346.741 C 74.804 350.753,75.069 359.319,78.876 361.563 C 79.604 361.992,80.528 362.671,80.928 363.071 C 81.661 363.804,348.570 364.509,354.655 363.795 C 358.089 363.392,358.117 363.339,358.314 356.754 C 358.485 351.053,358.480 351.007,357.712 351.809 C 357.068 352.483,356.540 352.595,354.569 352.477 C 353.266 352.399,337.080 352.368,318.600 352.408 C 241.039 352.579,104.864 351.343,100.400 350.429 C 99.190 350.181,96.246 349.811,93.859 349.607 C 87.830 349.091,86.607 348.432,86.581 345.685 C 86.570 344.567,86.705 343.741,86.881 343.850 C 87.056 343.958,87.200 343.779,87.200 343.451 C 87.200 342.802,87.705 342.598,90.300 342.194 C 91.681 341.979,92.005 341.768,92.028 341.065 C 92.149 337.261,92.842 336.574,96.700 336.433 C 97.475 336.405,97.600 336.182,97.600 334.826 C 97.600 331.652,98.591 330.621,101.539 330.729 C 102.552 330.767,102.824 330.638,102.656 330.202 C 102.534 329.885,102.568 329.544,102.730 329.443 C 102.892 329.343,103.069 328.687,103.122 327.986 C 103.255 326.246,103.879 325.200,104.783 325.200 C 105.891 325.200,108.020 323.251,108.696 321.619 C 109.269 320.236,110.556 318.690,110.873 319.006 C 110.959 319.093,111.277 318.767,111.579 318.282 C 112.099 317.447,112.088 317.431,111.364 317.988 C 110.895 318.349,110.975 318.155,111.570 317.488 C 112.562 316.375,113.062 316.053,112.575 316.840 C 112.384 317.149,112.556 317.145,113.152 316.826 C 113.618 316.576,114.000 316.108,114.000 315.786 C 114.000 315.464,114.392 314.808,114.872 314.328 C 115.352 313.848,115.779 313.083,115.821 312.628 C 115.862 312.173,116.105 311.847,116.360 311.904 C 116.614 311.961,116.927 311.736,117.054 311.404 C 117.181 311.072,117.536 310.800,117.843 310.800 C 118.149 310.800,118.400 310.620,118.400 310.400 C 118.400 310.180,118.670 310.000,119.000 310.000 C 119.330 310.000,119.600 309.853,119.600 309.674 C 119.600 309.495,120.230 309.048,121.000 308.681 C 121.770 308.313,122.397 307.785,122.394 307.506 C 122.390 307.160,122.265 307.190,122.000 307.600 C 121.787 307.930,121.614 308.020,121.617 307.800 C 121.620 307.580,122.196 306.860,122.898 306.200 C 123.600 305.540,123.910 305.344,123.587 305.764 C 123.032 306.487,123.048 306.499,123.874 305.984 C 124.355 305.685,124.659 305.296,124.551 305.120 C 124.442 304.944,124.543 304.800,124.776 304.800 C 125.009 304.800,125.200 304.530,125.200 304.200 C 125.200 303.870,125.425 303.597,125.700 303.594 C 126.033 303.590,126.000 303.458,125.600 303.200 C 124.958 302.785,121.793 302.714,120.800 303.092 " stroke="none" fill="#190e0d" fill-rule="evenodd"></path><path id="path3" d="M352.078 90.173 C 350.005 94.176,351.455 97.226,354.866 96.037 C 355.682 95.752,355.949 95.759,355.764 96.059 C 355.588 96.344,355.816 96.388,356.450 96.193 C 357.746 95.794,357.875 95.618,357.188 95.184 C 356.685 94.866,356.693 94.811,357.248 94.806 C 358.307 94.796,358.291 90.001,357.230 89.724 C 356.804 89.612,356.535 89.314,356.632 89.061 C 357.225 87.509,352.912 88.563,352.078 90.173 M348.406 98.100 C 348.411 98.828,348.486 98.885,348.800 98.400 C 349.301 97.624,349.301 97.200,348.800 97.200 C 348.580 97.200,348.403 97.605,348.406 98.100 M339.919 106.053 C 339.105 106.490,338.316 107.242,338.166 107.724 C 337.830 108.798,337.281 109.186,336.080 109.194 C 334.649 109.203,332.800 110.327,332.800 111.187 C 332.800 111.608,332.620 112.064,332.400 112.200 C 332.180 112.336,332.000 112.813,332.000 113.259 C 332.000 114.188,330.531 115.567,329.521 115.587 C 328.546 115.606,326.902 117.254,326.581 118.534 C 326.298 119.660,324.643 120.800,323.290 120.800 C 322.278 120.800,320.815 122.424,320.560 123.831 C 320.258 125.494,319.808 125.863,317.725 126.148 C 315.253 126.487,314.400 127.306,314.400 129.340 C 314.400 130.556,314.129 131.239,313.305 132.099 C 312.287 133.162,312.196 133.539,312.005 137.521 C 311.489 148.280,312.632 236.960,313.638 264.200 C 314.143 277.890,313.937 276.395,316.809 287.200 C 317.013 287.970,317.185 289.243,317.190 290.030 C 317.196 290.816,317.650 292.962,318.200 294.800 C 318.750 296.638,319.232 299.324,319.270 300.770 C 319.351 303.781,319.292 304.436,320.527 286.800 C 320.889 281.630,321.453 273.980,321.780 269.800 C 323.057 253.483,324.222 208.367,324.588 161.079 C 324.786 135.355,324.773 135.600,326.008 135.600 C 326.888 135.600,328.051 134.463,328.778 132.893 C 330.596 128.967,330.287 129.246,332.953 129.118 L 335.400 129.000 335.522 127.100 C 335.610 125.722,335.810 125.200,336.251 125.200 C 337.019 125.200,336.702 128.434,335.525 132.600 C 334.093 137.670,333.948 140.424,334.212 157.600 C 334.484 175.311,334.952 187.131,335.575 192.000 C 335.786 193.650,336.156 198.150,336.396 202.000 C 336.637 205.850,337.094 211.250,337.413 214.000 C 337.732 216.750,337.994 221.976,337.996 225.614 C 338.000 231.738,339.370 243.458,340.250 244.881 C 340.380 245.091,340.655 247.184,340.862 249.531 C 341.069 251.879,341.369 254.970,341.530 256.400 L 341.823 259.000 342.125 255.200 C 342.290 253.110,342.602 249.960,342.817 248.200 C 345.473 226.448,346.851 188.874,346.786 139.971 C 346.751 112.930,346.836 110.004,347.688 108.919 C 349.555 106.543,343.303 104.236,339.919 106.053 M343.274 112.000 C 344.175 113.653,343.993 116.057,342.773 118.626 C 342.348 119.521,341.989 121.141,341.975 122.226 C 341.955 123.718,341.866 123.995,341.610 123.360 C 340.729 121.181,332.800 122.043,332.800 124.318 C 332.800 125.040,331.981 125.714,329.554 126.989 C 328.117 127.744,327.653 128.237,327.457 129.217 C 327.218 130.408,325.588 132.273,323.625 133.601 C 321.664 134.927,321.354 138.597,320.335 172.600 C 319.821 189.760,319.358 202.720,319.307 201.400 C 319.257 200.080,319.012 195.760,318.764 191.800 C 318.516 187.840,318.163 180.730,317.979 176.000 C 317.426 161.775,316.829 151.209,316.363 147.400 C 315.434 139.807,315.425 136.533,316.327 134.686 C 316.780 133.759,317.346 132.460,317.585 131.800 C 317.850 131.070,318.839 130.044,320.110 129.182 C 321.358 128.336,322.580 127.076,323.144 126.056 C 323.864 124.755,324.603 124.104,326.245 123.327 C 327.972 122.509,328.610 121.923,329.449 120.381 C 330.097 119.190,330.935 118.275,331.649 117.980 C 332.380 117.677,333.340 116.607,334.276 115.051 C 335.911 112.334,336.238 112.015,337.400 112.006 C 337.840 112.002,338.830 111.658,339.600 111.241 C 341.535 110.193,342.384 110.369,343.274 112.000 M342.085 132.800 L 341.840 135.400 341.519 133.400 C 341.342 132.300,341.325 130.230,341.481 128.800 L 341.765 126.200 342.048 128.200 C 342.203 129.300,342.220 131.370,342.085 132.800 M168.000 158.766 C 168.966 159.108,168.969 159.122,168.100 159.160 C 167.605 159.182,167.180 159.425,167.156 159.700 C 167.110 160.227,167.122 163.618,167.171 164.057 C 167.187 164.198,167.645 164.425,168.188 164.561 C 169.469 164.883,172.400 167.673,172.400 168.571 C 172.400 169.610,174.960 172.532,177.001 173.823 C 179.552 175.435,179.144 178.797,176.322 179.417 C 175.297 179.642,175.200 179.818,175.200 181.452 L 175.200 183.241 176.563 182.201 C 177.312 181.630,178.527 181.061,179.263 180.938 C 180.186 180.783,180.848 180.325,181.400 179.457 C 182.943 177.034,185.580 176.207,189.371 176.960 C 191.147 177.312,193.230 177.608,194.000 177.616 C 194.770 177.625,197.920 178.168,201.000 178.823 C 209.519 180.635,218.000 181.676,221.854 181.383 L 225.109 181.136 227.054 182.612 C 231.900 186.290,231.526 185.755,231.045 188.321 C 230.810 189.574,230.639 191.590,230.667 192.800 C 230.789 198.270,232.051 218.941,232.453 222.043 L 232.898 225.486 231.349 228.434 C 230.009 230.984,229.475 231.583,227.387 232.879 C 224.890 234.430,225.009 234.403,214.200 235.864 L 212.200 236.134 214.200 236.418 C 215.300 236.575,218.720 237.008,221.800 237.382 C 224.880 237.756,228.120 238.190,229.000 238.346 C 229.880 238.501,231.410 238.501,232.400 238.344 C 237.281 237.572,240.280 238.081,241.222 239.841 C 241.729 240.788,241.735 240.785,242.489 239.100 C 243.422 237.016,243.413 237.459,242.770 225.800 C 242.474 220.434,242.272 209.579,242.312 201.186 C 242.360 190.930,242.210 184.465,241.838 180.786 C 241.342 175.876,241.351 175.356,241.947 174.901 C 244.624 172.856,245.749 170.788,246.185 167.106 C 246.334 165.845,246.636 164.701,246.856 164.566 C 247.413 164.221,247.195 160.784,246.548 159.725 C 246.045 158.901,246.090 158.842,247.307 158.713 C 248.018 158.638,246.318 158.584,243.529 158.592 C 240.740 158.601,238.310 158.760,238.129 158.945 C 237.948 159.130,238.610 159.239,239.600 159.187 C 242.285 159.046,243.273 159.158,243.017 159.572 C 242.891 159.777,242.989 160.070,243.236 160.222 C 243.554 160.419,243.527 160.600,243.143 160.844 C 242.844 161.033,242.789 161.191,243.020 161.194 C 243.569 161.202,243.243 164.102,242.648 164.499 C 242.402 164.664,241.480 164.715,240.600 164.613 C 239.720 164.511,237.824 164.321,236.386 164.191 C 233.518 163.932,232.632 162.793,234.786 162.133 C 235.570 161.893,235.166 161.768,233.000 161.582 L 230.200 161.341 233.000 161.205 L 235.800 161.070 233.600 160.784 L 231.400 160.499 234.000 160.481 C 237.446 160.457,237.495 160.449,236.800 160.000 C 236.470 159.787,234.940 159.577,233.400 159.534 L 230.600 159.456 233.600 159.200 C 235.250 159.059,221.660 158.910,203.400 158.868 C 185.140 158.826,169.480 158.706,168.600 158.601 C 167.331 158.451,167.207 158.485,168.000 158.766 M233.032 175.663 C 233.405 176.384,234.141 176.930,235.143 177.230 C 237.818 178.032,238.676 180.780,237.413 184.500 C 237.090 185.451,236.678 187.932,236.497 190.014 L 236.168 193.800 235.845 189.605 C 235.480 184.860,235.227 184.244,232.416 181.258 C 231.307 180.079,230.400 178.878,230.400 178.589 C 230.400 178.299,229.649 177.419,228.731 176.634 C 226.857 175.030,226.859 175.016,229.030 174.260 C 230.937 173.597,232.192 174.037,233.032 175.663 M194.914 303.094 C 172.332 303.192,169.255 303.278,169.456 303.803 C 169.633 304.263,169.333 304.414,168.143 304.460 L 166.600 304.520 168.400 304.800 L 170.200 305.080 168.600 305.193 L 167.000 305.305 168.400 305.600 C 169.572 305.847,169.344 305.911,167.000 305.994 C 165.460 306.048,164.560 306.169,165.000 306.262 C 167.715 306.836,167.634 306.789,167.218 307.566 C 166.607 308.708,167.444 308.816,180.000 309.215 C 194.308 309.670,207.338 310.337,210.992 310.803 C 212.536 310.999,217.490 311.361,222.000 311.607 C 226.510 311.853,231.756 312.312,233.657 312.627 C 235.559 312.942,238.148 313.200,239.412 313.200 C 240.676 313.200,243.260 313.381,245.155 313.602 C 261.286 315.484,307.110 316.552,309.189 315.094 C 309.834 314.641,310.936 314.400,312.356 314.400 C 313.553 314.400,314.400 314.267,314.237 314.104 C 314.075 313.941,312.418 313.806,310.557 313.804 C 306.703 313.799,306.603 313.727,306.175 310.621 C 306.023 309.512,305.266 307.413,304.493 305.956 L 303.088 303.307 299.244 303.064 C 295.601 302.834,251.482 302.847,194.914 303.094 M341.282 333.485 C 341.017 334.369,340.800 335.645,340.800 336.320 C 340.800 338.483,340.151 339.600,338.894 339.600 C 338.275 339.600,336.695 339.882,335.384 340.227 C 333.888 340.621,330.543 340.923,326.400 341.039 C 318.861 341.249,312.106 341.843,316.000 341.954 C 317.210 341.988,322.430 342.196,327.600 342.416 C 337.440 342.835,340.800 342.563,340.800 341.348 C 340.800 341.033,341.055 340.677,341.367 340.557 C 342.345 340.182,342.760 335.603,342.054 332.966 C 341.767 331.893,341.757 331.900,341.282 333.485 " stroke="none" fill="#898797" fill-rule="evenodd"></path><path id="path4" d="M167.400 42.000 C 167.557 42.254,166.292 42.418,163.924 42.450 C 159.029 42.515,153.591 43.036,156.600 43.151 L 158.600 43.227 157.000 44.000 C 155.605 44.674,155.528 44.775,156.400 44.793 C 157.123 44.807,157.248 44.908,156.852 45.159 C 156.409 45.440,156.447 45.596,157.052 45.972 C 157.718 46.387,157.695 46.409,156.839 46.173 C 156.066 45.959,155.927 46.032,156.125 46.550 C 156.491 47.502,156.868 47.457,137.200 48.799 C 126.466 49.531,112.973 51.267,112.228 52.012 C 112.014 52.226,111.192 52.400,110.400 52.400 C 109.608 52.400,108.789 52.554,108.580 52.742 C 108.052 53.217,86.385 54.006,71.083 54.107 L 58.367 54.191 57.447 55.196 C 55.603 57.210,55.635 56.419,55.515 102.600 C 55.340 169.424,56.752 256.247,58.354 277.200 L 58.644 281.000 58.925 278.600 C 59.357 274.909,60.280 267.553,61.031 261.800 C 61.405 258.940,61.853 253.900,62.028 250.600 C 62.370 244.138,63.375 232.177,64.009 227.010 C 64.224 225.256,64.400 223.043,64.400 222.092 C 64.400 220.523,66.153 216.547,68.505 212.781 C 69.289 211.525,69.930 211.827,73.286 215.033 C 78.257 219.782,82.072 220.987,82.975 218.093 C 83.193 217.395,85.349 216.000,86.210 216.000 C 86.271 216.000,86.437 217.125,86.577 218.500 C 86.718 219.875,87.089 222.890,87.400 225.200 C 87.712 227.510,88.159 231.200,88.393 233.400 C 88.627 235.600,89.183 239.920,89.629 243.000 C 90.075 246.080,90.597 249.860,90.788 251.400 C 90.980 252.940,91.261 254.690,91.413 255.290 L 91.689 256.380 92.645 254.972 C 93.170 254.198,93.600 253.210,93.600 252.777 C 93.600 252.344,93.772 251.677,93.982 251.295 C 94.479 250.390,95.522 245.937,95.833 243.397 C 95.967 242.299,96.407 240.140,96.810 238.600 C 97.906 234.411,99.591 189.582,99.606 164.216 C 99.609 158.707,99.778 151.140,99.982 147.400 C 100.290 141.741,100.447 124.307,100.345 107.246 C 100.320 103.134,100.741 101.850,102.386 101.020 C 104.075 100.167,108.725 99.479,110.934 99.755 C 120.294 100.923,261.965 101.668,267.769 100.579 C 268.905 100.366,270.019 99.558,272.425 97.200 C 274.164 95.495,276.040 93.804,276.594 93.441 C 277.147 93.078,277.602 92.561,277.604 92.291 C 277.606 92.021,278.532 90.990,279.662 90.000 C 280.791 89.010,282.994 86.974,284.557 85.476 C 286.121 83.978,287.536 82.628,287.702 82.476 C 287.869 82.324,288.996 81.210,290.208 80.000 C 291.420 78.790,293.119 77.170,293.983 76.400 C 294.848 75.630,295.919 74.415,296.364 73.700 C 296.809 72.985,297.428 72.400,297.739 72.400 C 298.050 72.400,298.758 71.815,299.311 71.100 C 301.064 68.835,302.657 67.200,303.110 67.200 C 303.351 67.200,304.582 66.030,305.845 64.600 C 307.108 63.170,308.301 62.000,308.495 62.000 C 308.997 62.000,312.400 58.750,312.400 58.270 C 312.400 57.456,314.888 54.026,315.655 53.783 C 316.092 53.644,316.646 53.097,316.888 52.568 C 317.750 50.674,322.405 48.800,326.247 48.800 C 329.907 48.800,330.400 48.422,330.400 45.610 C 330.400 44.040,330.237 43.200,329.933 43.200 C 329.677 43.200,329.578 43.089,329.714 42.952 C 330.655 42.012,328.505 41.748,319.200 41.664 C 312.461 41.602,309.587 41.702,310.000 41.981 C 310.493 42.315,310.441 42.389,309.713 42.394 C 309.092 42.398,308.894 42.579,309.054 42.997 C 309.396 43.888,308.425 44.074,305.569 43.666 C 303.041 43.305,303.028 43.297,304.800 43.184 C 305.790 43.121,304.260 42.934,301.400 42.768 C 298.540 42.602,294.580 42.275,292.600 42.040 C 287.758 41.467,167.047 41.428,167.400 42.000 M308.883 45.080 C 308.489 45.231,308.476 45.409,308.828 45.834 C 309.187 46.266,309.147 46.446,308.647 46.637 C 308.294 46.773,308.123 47.076,308.268 47.310 C 308.436 47.581,308.277 47.639,307.833 47.468 C 307.449 47.321,306.924 47.187,306.667 47.172 C 306.410 47.156,306.560 46.989,307.000 46.800 C 307.763 46.472,307.759 46.455,306.900 46.428 C 306.405 46.413,306.000 46.225,306.000 46.011 C 306.000 45.798,305.415 45.471,304.700 45.286 C 303.647 45.013,303.971 44.942,306.400 44.916 C 308.050 44.898,309.167 44.972,308.883 45.080 M235.600 49.872 C 242.310 50.238,251.940 50.568,257.000 50.605 C 265.487 50.667,273.614 51.285,280.800 52.416 C 290.416 53.929,303.924 53.957,306.730 52.470 C 309.146 51.189,309.600 51.657,309.600 55.430 L 309.600 58.362 299.928 67.981 C 294.608 73.272,290.172 77.600,290.069 77.600 C 289.967 77.600,287.434 80.025,284.441 82.988 C 269.322 97.959,269.346 97.938,266.678 98.770 C 264.146 99.559,126.634 99.253,115.200 98.433 C 106.889 97.836,102.120 98.397,100.223 100.193 C 98.431 101.891,98.072 105.086,97.773 122.000 C 97.603 131.616,97.369 136.346,97.001 137.600 C 96.710 138.590,96.366 140.276,96.237 141.347 C 96.108 142.418,95.478 144.308,94.836 145.547 C 93.670 147.800,92.786 153.003,92.796 157.554 C 92.798 158.519,92.579 160.499,92.309 161.954 L 91.818 164.600 91.339 160.000 C 91.076 157.470,90.847 154.030,90.830 152.355 C 90.814 150.680,90.613 148.340,90.384 147.155 C 89.051 140.248,88.800 135.989,88.810 120.425 C 88.821 102.166,88.854 101.893,91.357 99.672 C 92.798 98.394,93.350 97.629,93.774 96.326 C 94.047 95.489,94.951 94.458,96.283 93.465 C 97.602 92.482,98.524 91.435,98.796 90.612 C 99.538 88.364,100.806 88.041,114.700 86.563 C 116.075 86.416,117.200 86.227,117.200 86.142 C 117.200 86.057,116.527 84.974,115.705 83.736 C 112.612 79.078,113.302 74.982,117.600 72.473 C 118.590 71.896,119.996 71.022,120.724 70.533 L 122.047 69.644 120.504 69.228 C 119.655 68.999,116.899 68.376,114.380 67.842 C 109.548 66.818,107.517 66.200,106.195 65.350 C 104.579 64.311,91.792 62.010,87.527 61.990 C 86.357 61.985,84.669 61.812,83.776 61.605 C 79.723 60.669,68.446 59.605,66.051 59.932 C 60.757 60.656,59.720 63.795,60.389 77.065 C 60.609 81.429,60.790 88.420,60.792 92.600 C 60.793 96.780,61.009 102.832,61.273 106.050 C 61.836 112.935,61.178 140.317,60.193 151.000 C 59.869 154.520,59.432 160.886,59.223 165.146 C 58.774 174.267,58.406 175.509,58.386 167.967 C 58.378 165.015,58.202 158.100,57.994 152.600 C 57.574 141.488,57.543 92.471,57.942 71.443 L 58.200 57.885 68.400 57.770 C 74.010 57.706,82.110 57.374,86.400 57.030 C 90.690 56.687,95.820 56.404,97.800 56.403 C 99.780 56.401,104.820 56.139,109.000 55.820 C 119.817 54.995,132.200 54.444,150.600 53.970 C 172.010 53.417,180.662 52.879,182.600 51.979 C 187.247 49.820,214.664 48.730,235.600 49.872 M170.100 158.676 C 170.485 158.776,171.115 158.776,171.500 158.676 C 171.885 158.575,171.570 158.493,170.800 158.493 C 170.030 158.493,169.715 158.575,170.100 158.676 M247.116 161.276 C 247.683 161.843,248.800 162.063,248.800 161.607 C 248.800 161.262,247.820 160.800,247.087 160.800 C 246.774 160.800,246.782 160.942,247.116 161.276 M249.200 162.749 C 249.200 162.899,249.548 163.320,249.973 163.684 C 250.698 164.305,250.743 164.299,250.690 163.598 C 250.639 162.921,249.200 162.101,249.200 162.749 M91.313 266.433 C 90.537 269.252,90.535 269.758,91.301 269.915 C 92.287 270.118,92.562 269.084,92.152 266.708 L 91.800 264.666 91.313 266.433 M85.480 273.960 C 84.905 275.112,84.912 275.232,85.577 275.588 C 86.436 276.047,86.802 275.760,86.794 274.633 C 86.782 272.959,86.143 272.631,85.480 273.960 M295.965 300.475 C 298.122 301.542,297.805 301.837,295.385 301.015 C 294.344 300.662,293.406 300.461,293.299 300.567 C 293.193 300.674,293.622 300.883,294.253 301.033 C 294.884 301.183,295.796 301.664,296.280 302.103 C 296.763 302.542,297.417 302.803,297.731 302.682 C 298.045 302.561,298.545 302.673,298.841 302.931 C 299.137 303.189,299.044 302.998,298.634 302.508 C 298.019 301.770,297.979 301.508,298.401 300.998 C 298.838 300.472,298.803 300.423,298.157 300.666 C 297.537 300.898,297.483 300.846,297.861 300.375 C 298.248 299.892,298.001 299.788,296.309 299.725 L 294.297 299.649 295.965 300.475 M293.200 301.411 C 293.200 301.503,293.731 301.854,294.380 302.190 C 295.669 302.856,296.806 303.023,296.180 302.455 C 295.736 302.051,293.200 301.162,293.200 301.411 " stroke="none" fill="#9f7a3c" fill-rule="evenodd"></path><path id="path5" d="M48.505 41.887 C 49.114 41.979,50.014 41.977,50.505 41.882 C 50.997 41.787,50.500 41.711,49.400 41.714 C 48.300 41.717,47.897 41.795,48.505 41.887 M109.200 42.020 C 99.630 42.166,83.040 42.311,72.333 42.342 C 53.422 42.398,51.360 42.489,51.826 43.242 C 51.948 43.439,51.889 43.600,51.695 43.600 C 50.670 43.600,51.167 47.560,52.281 48.269 C 54.134 49.449,54.530 51.634,53.575 55.400 C 52.141 61.057,52.054 141.456,53.405 213.800 C 53.529 220.400,53.814 239.030,54.039 255.200 C 54.527 290.231,54.932 303.776,55.542 305.400 C 55.790 306.060,56.097 306.884,56.225 307.231 C 56.794 308.775,58.666 309.290,59.182 308.044 C 59.443 307.414,60.722 305.841,62.025 304.549 C 63.327 303.257,64.395 302.091,64.397 301.957 C 64.400 301.698,71.508 294.677,77.356 289.157 C 84.339 282.566,96.000 270.894,96.000 270.497 C 96.000 270.274,96.405 269.825,96.900 269.499 C 100.311 267.253,100.333 267.069,101.179 234.133 C 101.400 225.516,101.759 214.986,101.977 210.733 C 102.194 206.480,102.475 198.500,102.600 193.000 C 102.845 182.228,103.431 175.712,104.225 174.918 C 104.908 174.235,105.185 175.048,105.255 177.933 C 105.304 180.000,105.337 179.907,105.631 176.870 C 105.807 175.038,106.168 173.279,106.432 172.961 C 106.696 172.643,107.022 170.632,107.156 168.491 L 107.400 164.600 107.623 168.600 C 107.839 172.492,107.849 172.427,108.004 166.200 L 108.162 159.800 108.400 164.800 C 108.593 168.852,108.656 169.231,108.733 166.800 C 108.787 165.105,109.077 163.365,109.400 162.800 C 109.864 161.989,109.992 158.813,110.080 146.000 L 110.189 130.200 110.400 151.200 L 110.611 172.200 110.745 150.400 C 110.819 138.410,111.013 129.050,111.177 129.600 C 111.424 130.432,111.508 130.264,111.679 128.600 C 111.792 127.500,112.082 126.000,112.324 125.266 C 112.704 124.114,112.684 123.998,112.182 124.415 C 111.506 124.976,111.433 124.660,111.995 123.610 C 112.275 123.086,112.218 122.542,111.797 121.736 C 111.472 121.111,111.204 120.364,111.202 120.075 C 111.201 119.786,110.885 119.589,110.500 119.636 C 108.931 119.830,106.400 116.741,106.400 114.632 C 106.400 114.305,105.665 113.447,104.766 112.725 C 102.461 110.872,101.976 109.480,102.319 105.698 L 102.600 102.601 105.601 101.969 C 107.701 101.526,109.323 101.426,111.001 101.634 C 112.321 101.799,120.510 102.133,129.200 102.378 C 137.890 102.622,148.330 102.976,152.400 103.164 C 156.801 103.367,163.123 103.349,168.000 103.120 C 172.510 102.908,197.260 102.690,223.000 102.636 C 274.545 102.527,271.045 102.728,273.459 99.749 C 274.306 98.703,275.425 97.477,275.944 97.024 C 276.462 96.571,277.590 95.592,278.449 94.849 C 279.308 94.106,280.111 93.116,280.234 92.649 C 280.357 92.180,281.378 91.263,282.514 90.600 C 284.002 89.732,284.797 88.929,285.386 87.698 C 285.963 86.492,286.562 85.877,287.441 85.587 C 288.869 85.115,290.137 83.878,291.171 81.948 C 291.568 81.207,292.232 80.538,292.647 80.462 C 293.590 80.289,295.795 78.215,296.859 76.500 C 297.302 75.785,297.841 75.200,298.056 75.200 C 298.717 75.200,301.903 71.999,302.375 70.861 C 302.619 70.270,303.338 69.557,303.971 69.277 C 305.226 68.722,307.380 66.720,308.518 65.054 C 308.913 64.475,309.813 63.710,310.518 63.354 C 311.223 62.997,313.510 60.997,315.600 58.909 C 317.787 56.724,320.037 54.859,320.900 54.513 C 321.725 54.183,322.400 53.677,322.400 53.389 C 322.400 52.448,324.978 51.200,326.921 51.200 C 328.962 51.200,330.961 50.584,330.635 50.056 C 330.517 49.866,330.821 49.719,331.311 49.729 C 332.365 49.751,335.422 48.489,335.098 48.165 C 334.974 48.041,335.025 47.410,335.211 46.762 C 335.400 46.101,335.397 45.679,335.202 45.799 C 335.011 45.917,334.742 45.830,334.604 45.607 C 334.466 45.383,334.543 45.200,334.776 45.200 C 335.009 45.200,335.200 45.014,335.200 44.786 C 335.200 44.520,334.878 44.543,334.300 44.851 C 333.515 45.269,333.464 45.254,333.897 44.729 C 334.517 43.976,334.067 43.447,333.328 44.060 C 332.901 44.414,332.832 44.381,333.014 43.908 C 333.148 43.558,332.975 43.199,332.602 43.056 C 332.162 42.887,332.054 42.963,332.260 43.297 C 332.426 43.566,332.051 43.384,331.427 42.893 C 330.803 42.402,330.001 42.014,329.646 42.032 C 329.228 42.052,329.177 42.135,329.502 42.266 C 329.779 42.377,329.891 42.652,329.752 42.877 C 329.594 43.134,329.853 43.197,330.450 43.047 C 330.972 42.915,331.175 42.911,330.900 43.037 C 330.582 43.183,330.400 44.131,330.400 45.643 C 330.400 48.418,329.897 48.800,326.247 48.800 C 322.405 48.800,317.750 50.674,316.888 52.568 C 316.646 53.097,316.092 53.644,315.655 53.783 C 314.888 54.026,312.400 57.456,312.400 58.270 C 312.400 58.750,308.997 62.000,308.495 62.000 C 308.301 62.000,307.108 63.170,305.845 64.600 C 304.582 66.030,303.351 67.200,303.110 67.200 C 302.657 67.200,301.064 68.835,299.311 71.100 C 298.758 71.815,298.050 72.400,297.739 72.400 C 297.428 72.400,296.809 72.985,296.364 73.700 C 295.919 74.415,294.848 75.630,293.983 76.400 C 293.119 77.170,291.420 78.790,290.208 80.000 C 288.996 81.210,287.869 82.324,287.702 82.476 C 287.536 82.628,286.121 83.978,284.557 85.476 C 282.994 86.974,280.791 89.010,279.662 90.000 C 278.532 90.990,277.606 92.021,277.604 92.291 C 277.602 92.561,277.147 93.078,276.594 93.441 C 276.040 93.804,274.164 95.495,272.425 97.200 C 270.019 99.558,268.905 100.366,267.769 100.579 C 261.965 101.668,120.294 100.923,110.934 99.755 C 108.725 99.479,104.075 100.167,102.386 101.020 C 100.741 101.850,100.320 103.134,100.345 107.246 C 100.447 124.307,100.290 141.741,99.982 147.400 C 99.778 151.140,99.609 158.707,99.606 164.216 C 99.591 189.582,97.906 234.411,96.810 238.600 C 96.407 240.140,95.967 242.299,95.833 243.397 C 95.522 245.937,94.479 250.390,93.982 251.295 C 93.772 251.677,93.600 252.344,93.600 252.777 C 93.600 253.210,93.170 254.198,92.645 254.972 L 91.689 256.380 91.413 255.290 C 91.261 254.690,90.980 252.940,90.788 251.400 C 90.597 249.860,90.075 246.080,89.629 243.000 C 89.183 239.920,88.627 235.600,88.393 233.400 C 88.159 231.200,87.712 227.510,87.400 225.200 C 87.089 222.890,86.718 219.875,86.577 218.500 C 86.437 217.125,86.271 216.000,86.210 216.000 C 85.349 216.000,83.193 217.395,82.975 218.093 C 82.072 220.987,78.257 219.782,73.286 215.033 C 69.930 211.827,69.289 211.525,68.505 212.781 C 66.153 216.547,64.400 220.523,64.400 222.092 C 64.400 223.043,64.224 225.256,64.009 227.010 C 63.375 232.177,62.370 244.138,62.028 250.600 C 61.853 253.900,61.405 258.940,61.031 261.800 C 60.280 267.553,59.357 274.909,58.925 278.600 L 58.644 281.000 58.354 277.200 C 56.752 256.247,55.340 169.424,55.515 102.600 C 55.635 56.419,55.603 57.210,57.447 55.196 L 58.367 54.191 71.083 54.107 C 86.385 54.006,108.052 53.217,108.580 52.742 C 108.789 52.554,109.608 52.400,110.400 52.400 C 111.192 52.400,112.014 52.226,112.228 52.012 C 113.007 51.233,126.980 49.451,135.800 49.006 C 138.440 48.873,141.590 48.598,142.800 48.393 C 144.010 48.189,147.340 47.904,150.200 47.759 C 153.442 47.594,155.099 47.375,154.600 47.176 C 153.884 46.890,153.876 46.853,154.529 46.828 C 155.223 46.801,155.224 46.767,154.557 46.100 C 153.890 45.433,153.912 45.389,155.028 45.166 L 156.200 44.932 155.000 44.751 C 153.958 44.594,154.115 44.495,156.200 43.997 L 158.600 43.423 156.600 43.208 C 154.227 42.953,159.895 42.400,164.885 42.400 C 166.625 42.400,167.556 42.252,167.400 42.000 C 167.129 41.561,138.787 41.571,109.200 42.020 M292.800 42.045 C 297.126 42.583,306.570 42.925,308.615 42.619 C 312.733 42.001,309.145 41.614,299.800 41.667 C 292.821 41.707,290.910 41.810,292.800 42.045 M303.905 43.483 C 304.402 43.579,305.122 43.575,305.505 43.475 C 305.887 43.375,305.480 43.296,304.600 43.301 C 303.720 43.305,303.407 43.387,303.905 43.483 M306.900 43.876 C 307.285 43.976,307.915 43.976,308.300 43.876 C 308.685 43.775,308.370 43.693,307.600 43.693 C 306.830 43.693,306.515 43.775,306.900 43.876 M306.900 45.076 C 307.285 45.176,307.915 45.176,308.300 45.076 C 308.685 44.975,308.370 44.893,307.600 44.893 C 306.830 44.893,306.515 44.975,306.900 45.076 M347.601 81.524 C 347.600 81.812,347.420 81.936,347.200 81.800 C 346.980 81.664,346.800 81.747,346.800 81.984 C 346.800 82.230,346.355 82.335,345.765 82.228 C 344.925 82.076,344.778 82.166,344.986 82.708 C 345.127 83.075,345.114 83.248,344.958 83.091 C 344.489 82.622,343.600 83.630,343.600 84.631 C 343.600 85.144,343.150 86.014,342.600 86.564 C 342.050 87.114,341.600 87.921,341.600 88.358 C 341.600 88.795,341.422 89.263,341.205 89.397 C 340.970 89.542,340.916 89.363,341.073 88.955 C 341.251 88.489,341.185 88.362,340.868 88.558 C 340.611 88.717,340.400 89.111,340.400 89.434 C 340.400 89.756,339.950 90.191,339.400 90.400 C 338.850 90.609,338.400 90.894,338.400 91.033 C 338.400 91.172,338.679 91.178,339.021 91.047 C 339.377 90.911,339.537 90.978,339.397 91.205 C 339.263 91.422,338.847 91.600,338.472 91.600 C 338.098 91.600,337.318 92.039,336.739 92.576 C 336.160 93.113,335.577 93.443,335.443 93.310 C 335.309 93.176,335.200 93.287,335.200 93.557 C 335.200 93.827,335.020 93.936,334.800 93.800 C 334.580 93.664,334.400 93.763,334.400 94.019 C 334.400 94.275,333.958 94.832,333.418 95.257 C 332.849 95.705,332.531 96.276,332.661 96.615 C 332.798 96.972,332.646 97.200,332.272 97.200 C 331.934 97.200,331.328 97.619,330.925 98.132 C 330.522 98.645,329.966 98.989,329.690 98.897 C 328.976 98.659,326.791 101.111,327.069 101.837 C 327.212 102.208,327.092 102.389,326.749 102.316 C 326.447 102.252,326.245 102.425,326.300 102.700 C 326.355 102.975,326.130 103.200,325.800 103.200 C 325.470 103.200,325.200 103.362,325.200 103.561 C 325.200 103.958,322.975 104.842,322.691 104.558 C 322.594 104.460,322.263 104.690,321.957 105.067 C 321.475 105.661,321.481 105.712,322.000 105.446 C 322.330 105.277,322.226 105.471,321.769 105.878 C 321.312 106.284,321.012 106.837,321.103 107.108 C 321.193 107.379,321.052 107.600,320.791 107.600 C 320.529 107.600,320.411 107.852,320.530 108.161 C 320.723 108.666,319.542 109.365,318.700 109.243 C 318.535 109.219,318.400 109.410,318.400 109.667 C 318.400 109.923,318.283 110.016,318.140 109.873 C 317.996 109.730,317.623 109.925,317.310 110.306 C 316.962 110.730,316.857 110.766,317.039 110.400 C 317.239 109.999,317.050 110.052,316.469 110.562 C 315.502 111.410,315.338 111.780,316.100 111.394 C 316.375 111.255,316.240 111.432,315.800 111.788 C 315.360 112.143,315.029 112.513,315.065 112.608 C 315.457 113.655,312.988 115.655,312.234 114.901 C 312.105 114.772,312.000 114.885,312.000 115.151 C 312.000 115.417,311.705 115.582,311.344 115.518 C 310.650 115.393,309.340 117.342,309.406 118.400 C 309.426 118.730,309.078 119.360,308.631 119.800 C 307.818 120.601,307.700 120.657,306.622 120.750 C 305.508 120.846,303.993 122.581,303.844 123.931 C 303.764 124.663,303.496 125.464,303.249 125.711 C 302.462 126.498,302.767 126.913,303.700 126.323 C 304.195 126.011,305.410 125.703,306.399 125.640 C 308.786 125.487,308.799 125.473,308.806 123.076 C 308.809 121.934,308.984 120.730,309.193 120.400 C 309.610 119.742,309.735 119.713,312.500 119.646 L 314.400 119.600 314.400 117.208 C 314.400 114.533,314.422 114.515,318.000 114.305 L 319.800 114.200 319.847 112.073 C 319.905 109.456,320.167 109.180,322.803 108.960 C 325.589 108.727,325.600 108.715,325.600 105.976 C 325.600 103.659,325.627 103.599,326.700 103.566 C 331.009 103.431,331.200 103.306,331.200 100.619 C 331.200 98.234,331.254 98.188,334.200 98.039 C 336.687 97.914,336.733 97.865,336.849 95.295 C 336.951 93.016,337.529 92.600,341.000 92.303 C 342.111 92.208,342.216 92.062,342.413 90.345 C 342.703 87.825,343.311 87.200,345.475 87.200 C 348.286 87.200,348.800 86.738,348.800 84.209 C 348.800 82.419,348.955 81.937,349.700 81.415 C 350.582 80.797,350.571 80.787,349.101 80.892 C 348.187 80.958,347.601 81.205,347.601 81.524 M250.765 160.054 C 251.202 160.524,251.674 161.425,251.813 162.058 C 251.951 162.690,252.239 163.099,252.452 162.968 C 252.693 162.819,252.668 162.522,252.385 162.182 C 252.135 161.881,252.041 161.458,252.174 161.241 C 252.308 161.025,252.020 160.477,251.533 160.024 C 250.366 158.936,249.746 158.961,250.765 160.054 M163.649 161.709 C 164.103 162.574,164.093 162.580,163.323 161.897 C 162.129 160.838,160.806 162.215,161.908 163.369 C 162.569 164.061,162.560 164.073,161.709 163.637 C 160.956 163.252,160.855 163.278,161.058 163.808 C 161.191 164.153,161.376 164.358,161.469 164.264 C 161.563 164.170,162.261 164.233,163.020 164.405 L 164.400 164.716 164.400 163.001 C 164.400 161.834,164.205 161.211,163.791 161.052 C 163.278 160.855,163.255 160.959,163.649 161.709 M162.961 162.863 C 162.858 163.029,162.506 163.062,162.177 162.936 C 161.707 162.755,161.681 162.584,162.054 162.134 C 162.549 161.538,163.371 162.200,162.961 162.863 M252.501 171.800 C 252.505 172.680,252.587 172.993,252.683 172.495 C 252.779 171.998,252.775 171.278,252.675 170.895 C 252.575 170.513,252.496 170.920,252.501 171.800 M304.861 256.633 C 304.895 269.815,305.048 279.430,305.203 278.000 C 305.481 275.425,305.247 233.154,304.953 232.833 C 304.869 232.742,304.827 243.452,304.861 256.633 M306.134 236.000 C 306.134 237.650,306.205 238.325,306.291 237.500 C 306.378 236.675,306.378 235.325,306.291 234.500 C 306.205 233.675,306.134 234.350,306.134 236.000 M252.509 239.600 C 252.509 240.590,252.587 240.995,252.682 240.500 C 252.778 240.005,252.778 239.195,252.682 238.700 C 252.587 238.205,252.509 238.610,252.509 239.600 M251.200 243.579 C 251.200 243.715,250.294 243.859,249.187 243.900 C 248.081 243.941,246.866 244.158,246.487 244.382 C 245.991 244.677,246.605 244.744,248.689 244.626 C 250.278 244.535,251.763 244.347,251.989 244.207 C 252.596 243.832,252.488 243.333,251.800 243.333 C 251.470 243.333,251.200 243.444,251.200 243.579 M306.159 266.800 C 306.159 269.990,306.221 271.295,306.297 269.700 C 306.373 268.105,306.373 265.495,306.297 263.900 C 306.221 262.305,306.159 263.610,306.159 266.800 M92.319 267.699 C 92.212 269.947,92.119 270.186,91.400 270.067 C 90.074 269.845,90.026 269.512,90.911 266.693 C 91.924 263.465,92.501 263.877,92.319 267.699 M86.794 274.676 C 86.802 275.784,86.438 275.996,85.283 275.560 L 84.366 275.213 85.259 274.006 C 86.209 272.721,86.782 272.971,86.794 274.676 M306.689 275.733 C 306.297 276.726,306.374 281.209,306.800 282.200 C 307.086 282.865,307.156 282.764,307.218 281.600 C 307.263 280.767,307.365 280.524,307.470 281.000 C 308.108 283.885,308.719 282.275,308.683 277.800 C 308.668 275.916,308.609 275.589,308.505 276.800 C 308.277 279.436,307.725 279.596,307.326 277.143 C 307.080 275.623,306.894 275.213,306.689 275.733 M80.908 280.852 C 80.702 281.058,80.248 281.116,79.898 280.982 C 79.322 280.761,79.325 280.672,79.931 280.046 C 80.490 279.467,80.656 279.446,80.941 279.915 C 81.136 280.235,81.122 280.638,80.908 280.852 M286.600 299.578 C 292.515 299.771,293.654 299.917,295.348 300.699 C 296.576 301.265,297.121 301.387,296.823 301.028 C 295.694 299.667,292.853 299.198,286.229 299.278 L 279.800 299.355 286.600 299.578 M298.761 299.504 C 299.167 299.651,299.058 299.864,298.361 300.281 C 297.832 300.597,297.716 300.758,298.101 300.640 C 298.751 300.440,298.757 300.494,298.180 301.375 C 297.412 302.546,297.598 302.654,300.592 302.772 C 301.908 302.824,303.098 302.937,303.236 303.022 C 303.375 303.108,303.350 302.420,303.180 301.493 C 303.011 300.566,302.957 299.670,303.060 299.503 C 303.163 299.337,302.967 299.200,302.624 299.200 C 302.281 299.200,302.000 299.402,302.000 299.649 C 302.000 299.942,301.764 299.907,301.323 299.549 C 300.863 299.176,300.743 299.160,300.947 299.500 C 301.112 299.775,301.057 300.000,300.824 300.000 C 300.591 300.000,300.400 299.865,300.400 299.700 C 300.400 299.535,299.905 299.378,299.300 299.351 C 298.695 299.323,298.452 299.393,298.761 299.504 M273.947 300.621 C 272.269 301.161,270.668 301.878,270.390 302.212 C 270.005 302.676,270.334 302.629,271.775 302.011 C 274.351 300.906,275.958 300.918,274.000 302.026 L 272.600 302.819 275.800 302.676 C 277.560 302.597,279.360 302.396,279.800 302.229 C 280.443 301.984,280.482 302.011,280.000 302.363 C 279.558 302.685,281.512 302.792,287.400 302.768 C 294.643 302.739,295.296 302.681,294.300 302.155 C 293.695 301.836,293.200 301.500,293.200 301.408 C 293.200 301.164,295.699 302.045,296.400 302.536 C 296.814 302.826,296.793 302.729,296.331 302.223 C 294.599 300.326,280.776 298.821,279.787 300.422 C 279.613 300.702,279.208 300.635,278.577 300.222 C 277.406 299.454,277.628 299.435,273.947 300.621 M135.172 300.950 C 134.623 301.418,133.910 302.150,133.587 302.577 C 132.691 303.762,133.974 302.922,134.962 301.677 C 135.580 300.897,135.978 300.757,137.062 300.933 C 138.692 301.197,138.784 301.012,137.285 300.489 C 136.370 300.171,135.989 300.254,135.172 300.950 M277.004 300.862 C 276.364 301.033,275.760 301.093,275.662 300.995 C 275.372 300.705,277.365 300.073,277.784 300.322 C 277.995 300.448,277.644 300.691,277.004 300.862 M135.455 302.200 C 135.273 302.676,135.574 302.797,136.913 302.786 C 138.577 302.772,138.586 302.764,137.600 302.200 C 136.304 301.459,135.740 301.459,135.455 302.200 M126.493 307.600 C 126.493 308.370,126.575 308.685,126.676 308.300 C 126.776 307.915,126.776 307.285,126.676 306.900 C 126.575 306.515,126.493 306.830,126.493 307.600 " stroke="none" fill="#654a24" fill-rule="evenodd"></path><path id="path6" d="M200.400 49.817 C 192.321 50.400,183.760 51.440,182.600 51.979 C 180.662 52.879,172.010 53.417,150.600 53.970 C 132.200 54.444,119.817 54.995,109.000 55.820 C 104.820 56.139,99.780 56.401,97.800 56.403 C 95.820 56.404,90.690 56.687,86.400 57.030 C 82.110 57.374,74.010 57.706,68.400 57.770 L 58.200 57.885 57.942 71.443 C 57.543 92.471,57.574 141.488,57.994 152.600 C 58.202 158.100,58.378 165.015,58.386 167.967 C 58.406 175.509,58.774 174.267,59.223 165.146 C 59.432 160.886,59.869 154.520,60.193 151.000 C 61.178 140.317,61.836 112.935,61.273 106.050 C 61.009 102.832,60.793 96.780,60.792 92.600 C 60.790 88.420,60.609 81.429,60.389 77.065 C 59.720 63.795,60.757 60.656,66.051 59.932 C 68.446 59.605,79.723 60.669,83.776 61.605 C 84.669 61.812,86.357 61.985,87.527 61.990 C 91.792 62.010,104.579 64.311,106.195 65.350 C 107.517 66.200,109.548 66.818,114.380 67.842 C 116.899 68.376,119.655 68.999,120.504 69.228 L 122.047 69.644 120.724 70.533 C 119.996 71.022,118.590 71.896,117.600 72.473 C 113.302 74.982,112.612 79.078,115.705 83.736 C 116.527 84.974,117.200 86.057,117.200 86.142 C 117.200 86.227,116.075 86.416,114.700 86.563 C 100.806 88.041,99.538 88.364,98.796 90.612 C 98.524 91.435,97.602 92.482,96.283 93.465 C 94.951 94.458,94.047 95.489,93.774 96.326 C 93.350 97.629,92.798 98.394,91.357 99.672 C 88.854 101.893,88.821 102.166,88.810 120.425 C 88.800 135.989,89.051 140.248,90.384 147.155 C 90.613 148.340,90.814 150.680,90.830 152.355 C 90.847 154.030,91.076 157.470,91.339 160.000 L 91.818 164.600 92.309 161.954 C 92.579 160.499,92.798 158.519,92.796 157.554 C 92.786 153.003,93.670 147.800,94.836 145.547 C 95.478 144.308,96.108 142.418,96.237 141.347 C 96.366 140.276,96.710 138.590,97.001 137.600 C 97.369 136.346,97.603 131.616,97.773 122.000 C 98.072 105.086,98.431 101.891,100.223 100.193 C 102.120 98.397,106.889 97.836,115.200 98.433 C 126.634 99.253,264.146 99.559,266.678 98.770 C 269.346 97.938,269.322 97.959,284.441 82.988 C 287.434 80.025,289.967 77.600,290.069 77.600 C 290.172 77.600,294.608 73.272,299.928 67.981 L 309.600 58.362 309.600 55.430 C 309.600 51.657,309.146 51.189,306.730 52.470 C 303.924 53.957,290.416 53.929,280.800 52.416 C 273.614 51.285,265.487 50.667,257.000 50.605 C 251.940 50.568,242.310 50.238,235.600 49.872 C 221.624 49.110,210.448 49.093,200.400 49.817 M278.200 54.503 C 284.140 54.776,292.283 54.950,296.295 54.889 C 304.368 54.767,306.110 55.167,307.115 57.372 C 307.572 58.377,307.289 58.707,297.893 68.136 C 284.544 81.534,269.543 96.000,269.001 96.000 C 268.753 96.000,268.191 96.336,267.750 96.746 C 265.851 98.515,267.476 98.462,216.470 98.435 C 163.870 98.407,134.817 97.930,128.000 96.983 C 125.690 96.662,122.090 96.232,120.000 96.029 C 117.910 95.825,114.457 95.291,112.328 94.842 C 107.559 93.838,104.869 94.333,103.792 96.415 C 103.265 97.434,102.951 97.600,101.551 97.600 C 99.247 97.600,97.612 98.657,97.552 100.186 C 97.508 101.286,97.466 101.242,97.100 99.724 C 96.534 97.374,96.828 96.926,99.151 96.607 C 101.546 96.277,101.839 95.979,102.209 93.495 C 102.603 90.848,99.957 91.320,125.200 89.398 C 129.710 89.054,135.470 88.594,138.000 88.375 C 142.428 87.991,144.082 87.834,155.300 86.735 C 160.062 86.268,161.251 85.901,159.800 85.345 C 159.470 85.218,159.200 84.886,159.200 84.606 C 159.200 84.327,158.930 83.874,158.600 83.600 C 158.270 83.326,158.000 82.764,158.000 82.351 C 158.000 81.883,157.717 81.600,157.249 81.600 C 156.358 81.600,155.382 80.582,155.941 80.236 C 156.150 80.107,156.445 78.934,156.597 77.630 C 156.770 76.137,157.085 75.176,157.448 75.037 C 158.603 74.594,162.000 72.202,162.000 71.832 C 162.000 71.623,162.367 71.060,162.816 70.583 L 163.633 69.714 162.516 68.965 C 161.070 67.994,158.873 67.214,157.567 67.206 C 156.998 67.203,156.411 67.078,156.262 66.929 C 154.355 65.022,141.796 63.168,122.800 61.990 C 119.830 61.806,114.250 61.120,110.400 60.466 C 106.550 59.812,102.320 59.136,101.000 58.964 L 98.600 58.652 101.800 58.334 C 113.213 57.199,121.090 56.719,133.600 56.396 C 141.410 56.194,150.590 55.850,154.000 55.631 C 157.410 55.412,165.150 55.039,171.200 54.804 C 177.250 54.568,183.460 54.326,185.000 54.266 C 194.892 53.881,268.771 54.069,278.200 54.503 M276.946 68.624 C 274.031 70.284,272.289 72.585,272.477 74.527 C 272.730 77.143,276.400 76.051,276.400 73.360 C 276.400 72.223,277.049 71.748,279.056 71.417 C 281.333 71.042,282.703 69.583,282.075 68.204 C 281.433 66.796,279.945 66.918,276.946 68.624 M268.133 77.901 C 267.877 78.069,267.097 78.925,266.401 79.803 C 265.175 81.348,263.725 82.129,260.800 82.818 C 260.030 82.999,258.590 83.350,257.601 83.598 C 252.594 84.852,244.675 85.567,234.950 85.642 C 217.364 85.779,218.700 86.229,237.600 86.535 C 247.610 86.697,257.690 86.958,260.000 87.115 C 264.905 87.448,265.600 87.154,265.600 84.744 C 265.600 82.382,265.894 82.000,267.711 82.000 C 269.938 82.000,270.739 81.203,270.431 79.296 C 270.186 77.780,269.217 77.192,268.133 77.901 M188.928 158.700 C 195.049 158.762,204.949 158.762,210.928 158.700 C 216.908 158.637,211.900 158.587,199.800 158.587 C 187.700 158.587,182.808 158.638,188.928 158.700 " stroke="none" fill="#bc8c3e" fill-rule="evenodd"></path><path id="path7" d="M52.357 41.776 C 52.260 41.873,51.195 41.990,49.991 42.036 C 48.786 42.082,47.495 42.274,47.121 42.463 C 46.748 42.651,45.983 42.843,45.421 42.890 C 44.860 42.936,44.400 43.115,44.400 43.287 C 44.400 43.459,44.175 43.555,43.900 43.500 C 43.625 43.445,43.445 43.625,43.500 43.900 C 43.555 44.175,43.459 44.400,43.287 44.400 C 42.651 44.400,42.499 48.259,43.111 48.871 C 43.326 49.086,44.288 49.317,45.251 49.384 C 46.213 49.452,47.108 49.528,47.239 49.554 C 48.789 49.855,48.755 47.752,48.958 154.200 C 49.068 211.940,49.327 260.203,49.557 266.000 C 49.875 274.020,50.178 303.003,50.005 308.928 C 49.928 311.585,52.780 315.178,54.098 314.085 C 54.385 313.846,55.563 313.526,56.715 313.373 C 58.936 313.079,62.000 310.694,62.000 309.259 C 62.000 308.903,63.215 307.414,64.700 305.949 C 66.185 304.484,67.916 302.672,68.547 301.923 C 69.178 301.174,70.214 300.262,70.851 299.897 C 71.487 299.532,72.171 298.803,72.371 298.277 C 72.571 297.751,73.909 296.386,75.346 295.243 C 76.782 294.100,78.060 292.842,78.185 292.447 C 78.311 292.051,79.068 291.204,79.868 290.564 C 80.668 289.924,83.995 286.790,87.261 283.600 C 94.562 276.469,94.428 276.602,96.556 274.400 C 97.513 273.410,98.867 272.175,99.565 271.656 C 100.262 271.137,101.356 269.676,101.995 268.409 L 103.158 266.106 105.279 266.177 C 106.446 266.216,107.732 266.087,108.138 265.890 C 108.775 265.580,108.839 265.659,108.608 266.466 C 108.438 267.058,108.687 266.845,109.289 265.886 C 109.811 265.053,110.364 264.498,110.519 264.652 C 110.673 264.807,110.800 264.713,110.800 264.443 C 110.800 264.173,110.973 264.060,111.184 264.190 C 111.410 264.330,111.392 263.922,111.141 263.201 C 110.905 262.527,110.804 261.627,110.916 261.201 C 111.027 260.776,110.934 260.466,110.709 260.514 C 110.484 260.561,110.209 260.350,110.098 260.044 C 109.982 259.723,110.074 259.599,110.318 259.749 C 110.607 259.928,110.761 257.525,110.809 252.105 C 110.847 247.757,111.013 242.400,111.178 240.200 L 111.477 236.200 111.628 239.600 C 111.817 243.881,112.291 223.461,112.689 193.800 C 112.926 176.162,113.045 172.766,113.215 178.800 C 113.336 183.090,113.464 171.858,113.500 153.840 C 113.545 130.832,113.435 120.838,113.128 120.266 C 112.491 119.076,111.287 117.865,110.599 117.723 C 110.269 117.655,109.693 117.539,109.319 117.465 C 108.851 117.372,108.435 116.524,107.992 114.765 C 107.637 113.354,106.941 111.361,106.446 110.336 C 105.420 108.212,105.714 106.273,107.377 104.187 L 108.254 103.088 111.227 104.162 C 116.389 106.027,122.398 106.164,200.000 106.183 C 270.807 106.200,272.164 106.173,272.619 104.740 C 273.044 103.402,275.172 101.270,276.339 101.013 C 277.395 100.781,278.800 99.052,278.800 97.984 C 278.800 97.309,280.701 95.600,281.451 95.600 C 282.275 95.600,284.400 93.428,284.400 92.587 C 284.400 91.674,286.027 90.015,286.931 90.007 C 287.840 89.998,290.000 87.890,290.000 87.012 C 290.000 86.186,291.972 84.429,292.918 84.413 C 293.940 84.395,295.599 82.605,295.603 81.518 C 295.605 80.636,297.678 78.800,298.671 78.800 C 299.532 78.800,301.200 77.112,301.200 76.241 C 301.200 75.090,302.537 73.848,304.700 72.989 C 306.016 72.466,306.400 72.104,306.400 71.387 C 306.400 69.929,308.100 68.246,310.119 67.706 C 311.776 67.263,311.948 67.098,312.189 65.711 C 312.488 63.996,313.410 63.186,315.888 62.466 C 317.389 62.030,317.628 61.789,318.057 60.288 C 318.761 57.817,319.437 57.200,321.436 57.200 C 322.378 57.200,323.655 56.992,324.274 56.739 C 324.893 56.485,325.625 56.215,325.900 56.139 C 326.768 55.898,327.789 55.662,328.100 55.631 C 328.265 55.614,328.355 55.375,328.300 55.100 C 328.245 54.825,328.438 54.649,328.730 54.710 C 329.021 54.770,329.159 54.657,329.035 54.457 C 328.912 54.257,329.168 53.639,329.605 53.084 C 330.042 52.528,330.400 51.877,330.400 51.637 C 330.400 51.397,330.996 51.200,331.725 51.200 C 333.018 51.200,334.800 50.018,334.800 49.161 C 334.800 48.936,334.985 48.867,335.211 49.007 C 335.477 49.171,335.597 48.483,335.551 47.066 C 335.496 45.388,335.350 44.921,334.929 45.083 C 334.542 45.231,334.501 45.439,334.790 45.788 C 335.679 46.859,335.087 48.436,333.508 49.199 C 332.677 49.600,332.109 49.747,332.247 49.525 C 332.404 49.269,332.203 49.277,331.701 49.546 C 331.263 49.780,330.763 49.843,330.588 49.686 C 330.414 49.529,330.401 49.625,330.560 49.901 C 330.952 50.582,329.220 51.200,326.921 51.200 C 324.978 51.200,322.400 52.448,322.400 53.389 C 322.400 53.677,321.725 54.183,320.900 54.513 C 320.037 54.859,317.787 56.724,315.600 58.909 C 313.510 60.997,311.223 62.997,310.518 63.354 C 309.813 63.710,308.913 64.475,308.518 65.054 C 307.380 66.720,305.226 68.722,303.971 69.277 C 303.338 69.557,302.619 70.270,302.375 70.861 C 301.903 71.999,298.717 75.200,298.056 75.200 C 297.841 75.200,297.302 75.785,296.859 76.500 C 295.795 78.215,293.590 80.289,292.647 80.462 C 292.232 80.538,291.568 81.207,291.171 81.948 C 290.137 83.878,288.869 85.115,287.441 85.587 C 286.562 85.877,285.963 86.492,285.386 87.698 C 284.797 88.929,284.002 89.732,282.514 90.600 C 281.378 91.263,280.357 92.180,280.234 92.649 C 280.111 93.116,279.308 94.106,278.449 94.849 C 277.590 95.592,276.462 96.571,275.944 97.024 C 275.425 97.477,274.306 98.703,273.459 99.749 C 271.045 102.728,274.545 102.527,223.000 102.636 C 197.260 102.690,172.510 102.908,168.000 103.120 C 163.123 103.349,156.801 103.367,152.400 103.164 C 148.330 102.976,137.890 102.622,129.200 102.378 C 120.510 102.133,112.321 101.799,111.001 101.634 C 109.323 101.426,107.701 101.526,105.601 101.969 L 102.600 102.601 102.319 105.698 C 101.976 109.480,102.461 110.872,104.766 112.725 C 105.665 113.447,106.400 114.305,106.400 114.632 C 106.400 116.741,108.931 119.830,110.500 119.636 C 110.885 119.589,111.201 119.786,111.202 120.075 C 111.204 120.364,111.472 121.111,111.797 121.736 C 112.218 122.542,112.275 123.086,111.995 123.610 C 111.433 124.660,111.506 124.976,112.182 124.415 C 112.684 123.998,112.704 124.114,112.324 125.266 C 112.082 126.000,111.792 127.500,111.679 128.600 C 111.508 130.264,111.424 130.432,111.177 129.600 C 111.013 129.050,110.819 138.410,110.745 150.400 L 110.611 172.200 110.400 151.200 L 110.189 130.200 110.080 146.000 C 109.992 158.813,109.864 161.989,109.400 162.800 C 109.077 163.365,108.787 165.105,108.733 166.800 C 108.656 169.231,108.593 168.852,108.400 164.800 L 108.162 159.800 108.004 166.200 C 107.849 172.427,107.839 172.492,107.623 168.600 L 107.400 164.600 107.156 168.491 C 107.022 170.632,106.696 172.643,106.432 172.961 C 106.168 173.279,105.807 175.038,105.631 176.870 C 105.337 179.907,105.304 180.000,105.255 177.933 C 105.185 175.048,104.908 174.235,104.225 174.918 C 103.431 175.712,102.845 182.228,102.600 193.000 C 102.475 198.500,102.194 206.480,101.977 210.733 C 101.759 214.986,101.400 225.516,101.179 234.133 C 100.333 267.069,100.311 267.253,96.900 269.499 C 96.405 269.825,96.000 270.274,96.000 270.497 C 96.000 270.894,84.339 282.566,77.356 289.157 C 71.508 294.677,64.400 301.698,64.397 301.957 C 64.395 302.091,63.327 303.257,62.025 304.549 C 60.722 305.841,59.443 307.414,59.182 308.044 C 58.666 309.290,56.794 308.775,56.225 307.231 C 56.097 306.884,55.790 306.060,55.542 305.400 C 54.932 303.776,54.527 290.231,54.039 255.200 C 53.814 239.030,53.529 220.400,53.405 213.800 C 52.054 141.456,52.141 61.057,53.575 55.400 C 54.530 51.634,54.134 49.449,52.281 48.269 C 51.167 47.560,50.670 43.600,51.695 43.600 C 51.889 43.600,51.948 43.439,51.826 43.242 C 51.360 42.489,53.422 42.398,72.333 42.342 C 83.040 42.311,99.630 42.166,109.200 42.020 C 124.088 41.794,121.254 41.745,89.567 41.678 C 69.198 41.635,52.454 41.679,52.357 41.776 M333.088 43.715 C 332.926 44.137,333.011 44.355,333.314 44.295 C 333.581 44.243,333.752 44.433,333.694 44.717 C 333.613 45.117,333.774 45.135,334.405 44.797 C 335.277 44.331,335.083 43.406,334.185 43.750 C 333.892 43.863,333.583 43.749,333.499 43.498 C 333.412 43.235,333.237 43.327,333.088 43.715 M344.147 81.235 C 342.888 81.600,342.567 82.144,342.161 84.600 C 341.836 86.562,341.736 86.676,340.102 86.937 C 338.242 87.235,337.304 88.153,336.948 90.026 C 336.610 91.808,336.117 92.400,334.970 92.400 C 333.146 92.400,332.014 93.252,331.559 94.966 C 330.928 97.344,330.628 97.787,329.559 97.912 C 327.391 98.165,326.786 98.467,326.207 99.586 C 325.873 100.232,325.600 101.213,325.600 101.766 C 325.600 102.880,324.607 103.600,323.071 103.600 C 321.508 103.600,320.377 104.801,320.118 106.736 C 319.875 108.550,319.062 109.200,317.036 109.200 C 315.672 109.200,314.726 110.524,314.545 112.684 C 314.403 114.375,314.821 114.264,315.249 112.496 C 315.288 112.333,315.608 111.962,315.960 111.670 C 316.449 111.266,316.458 111.211,316.000 111.439 C 315.599 111.639,315.652 111.450,316.162 110.869 C 317.010 109.902,317.380 109.738,316.994 110.500 C 316.855 110.775,316.997 110.688,317.310 110.306 C 317.623 109.925,317.996 109.730,318.140 109.873 C 318.283 110.016,318.400 109.923,318.400 109.667 C 318.400 109.410,318.535 109.219,318.700 109.243 C 319.542 109.365,320.723 108.666,320.530 108.161 C 320.411 107.852,320.529 107.600,320.791 107.600 C 321.052 107.600,321.193 107.379,321.103 107.108 C 321.012 106.837,321.312 106.284,321.769 105.878 C 322.226 105.471,322.330 105.277,322.000 105.446 C 321.481 105.712,321.475 105.661,321.957 105.067 C 322.263 104.690,322.594 104.460,322.691 104.558 C 322.975 104.842,325.200 103.958,325.200 103.561 C 325.200 103.362,325.470 103.200,325.800 103.200 C 326.130 103.200,326.355 102.975,326.300 102.700 C 326.245 102.425,326.447 102.252,326.749 102.316 C 327.092 102.389,327.212 102.208,327.069 101.837 C 326.791 101.111,328.976 98.659,329.690 98.897 C 329.966 98.989,330.522 98.645,330.925 98.132 C 331.328 97.619,331.934 97.200,332.272 97.200 C 332.646 97.200,332.798 96.972,332.661 96.615 C 332.531 96.276,332.849 95.705,333.418 95.257 C 333.958 94.832,334.400 94.275,334.400 94.019 C 334.400 93.763,334.580 93.664,334.800 93.800 C 335.020 93.936,335.200 93.827,335.200 93.557 C 335.200 93.287,335.309 93.176,335.443 93.310 C 335.577 93.443,336.160 93.113,336.739 92.576 C 337.318 92.039,338.098 91.600,338.472 91.600 C 338.847 91.600,339.263 91.422,339.397 91.205 C 339.542 90.970,339.363 90.916,338.955 91.073 C 338.489 91.251,338.362 91.185,338.558 90.868 C 338.717 90.611,339.111 90.400,339.434 90.400 C 339.756 90.400,340.191 89.950,340.400 89.400 C 340.609 88.850,340.894 88.400,341.033 88.400 C 341.172 88.400,341.178 88.679,341.047 89.021 C 340.911 89.377,340.978 89.537,341.205 89.397 C 341.422 89.263,341.600 88.795,341.600 88.358 C 341.600 87.921,342.050 87.114,342.600 86.564 C 343.150 86.014,343.600 85.144,343.600 84.631 C 343.600 83.630,344.489 82.622,344.958 83.091 C 345.114 83.248,345.127 83.075,344.986 82.708 C 344.778 82.166,344.925 82.076,345.765 82.228 C 346.355 82.335,346.800 82.230,346.800 81.984 C 346.800 81.747,346.980 81.664,347.200 81.800 C 347.420 81.936,347.600 81.767,347.600 81.424 C 347.600 80.719,346.192 80.642,344.147 81.235 M310.986 114.781 C 309.821 115.253,309.103 116.246,309.325 117.081 C 309.491 117.707,309.552 117.685,309.803 116.904 C 309.961 116.412,310.255 116.110,310.455 116.234 C 310.656 116.358,310.770 116.221,310.710 115.930 C 310.645 115.619,310.889 115.449,311.300 115.518 C 311.685 115.582,312.000 115.437,312.000 115.194 C 312.000 114.951,312.135 114.831,312.300 114.926 C 312.465 115.022,312.960 114.955,313.400 114.778 C 314.069 114.509,314.003 114.456,313.000 114.453 C 312.340 114.452,311.434 114.599,310.986 114.781 M304.923 120.478 C 304.441 120.711,303.961 121.126,303.856 121.400 C 303.471 122.403,303.107 125.791,303.416 125.500 C 303.700 125.231,303.867 124.436,303.967 122.876 C 303.985 122.588,304.184 122.467,304.410 122.606 C 304.635 122.745,304.770 122.621,304.710 122.330 C 304.649 122.038,304.838 121.849,305.130 121.910 C 305.421 121.970,305.549 121.841,305.413 121.622 C 305.211 121.295,306.595 120.677,307.667 120.615 C 307.813 120.607,308.068 120.465,308.233 120.300 C 308.688 119.845,305.925 119.994,304.923 120.478 M302.880 213.400 C 302.846 259.600,302.814 297.715,302.809 298.100 C 302.802 298.675,302.432 298.800,300.733 298.800 C 299.597 298.800,298.784 298.917,298.927 299.060 C 299.070 299.204,298.875 299.572,298.494 299.880 C 298.001 300.277,298.177 300.256,299.100 299.809 C 299.846 299.448,300.400 299.354,300.400 299.590 C 300.400 299.815,300.591 300.000,300.824 300.000 C 301.057 300.000,301.112 299.775,300.947 299.500 C 300.743 299.160,300.863 299.176,301.323 299.549 C 301.764 299.907,302.000 299.942,302.000 299.649 C 302.000 299.402,302.281 299.200,302.624 299.200 C 302.967 299.200,303.166 299.335,303.067 299.500 C 302.294 300.785,303.467 302.907,305.344 303.619 C 306.414 304.025,307.625 304.661,308.036 305.033 C 308.740 305.670,308.800 305.665,309.062 304.954 C 309.216 304.540,309.523 304.079,309.744 303.931 C 310.011 303.753,309.967 302.341,309.612 299.731 C 309.318 297.569,308.956 292.380,308.807 288.200 C 308.658 284.020,308.505 281.131,308.468 281.780 C 308.390 283.130,307.768 282.762,307.488 281.200 C 307.344 280.396,307.293 280.474,307.226 281.600 C 307.045 284.672,306.455 281.333,306.378 276.800 C 306.295 271.919,306.014 272.264,305.236 278.200 C 305.062 279.533,304.929 269.932,304.938 256.600 C 304.948 243.400,305.065 234.400,305.200 236.600 L 305.445 240.600 305.562 235.800 C 305.631 233.012,305.800 231.419,305.966 232.000 C 306.384 233.464,306.795 227.491,306.798 219.900 C 306.799 215.453,306.934 213.600,307.256 213.600 C 307.841 213.600,307.358 202.955,306.602 199.200 C 306.314 197.770,306.061 196.861,306.039 197.180 C 306.008 197.644,305.900 197.660,305.500 197.260 C 305.111 196.871,305.000 191.348,305.000 172.365 C 305.000 151.117,304.923 147.922,304.400 147.592 C 303.915 147.285,303.908 147.211,304.360 147.206 C 305.114 147.198,304.635 137.229,303.795 135.421 C 303.482 134.749,303.163 133.120,303.085 131.800 C 303.007 130.480,302.915 167.200,302.880 213.400 M162.958 159.255 C 160.227 159.869,158.087 164.057,159.120 166.766 C 159.258 167.126,159.166 167.226,158.868 167.042 C 158.512 166.822,158.414 176.284,158.457 206.676 C 158.488 228.634,158.642 245.880,158.800 245.000 C 159.022 243.761,159.422 243.641,159.260 244.862 C 159.176 245.496,160.419 245.994,162.234 246.053 C 163.315 246.089,164.628 246.276,165.152 246.469 C 165.676 246.662,178.186 246.830,192.952 246.842 C 225.047 246.870,238.695 247.181,239.137 247.897 C 239.748 248.888,243.016 248.977,244.791 248.051 C 245.895 247.476,247.166 247.198,248.712 247.194 C 251.778 247.186,252.832 246.286,252.775 243.726 C 252.750 242.653,252.732 242.642,252.388 243.500 C 252.189 243.995,251.885 244.409,251.713 244.421 C 247.431 244.704,245.865 244.861,244.020 245.192 C 242.250 245.509,241.354 245.457,239.600 244.937 C 237.079 244.189,225.364 243.820,192.600 243.457 C 169.883 243.206,165.657 242.703,168.541 240.593 C 170.435 239.209,170.534 237.454,170.160 212.000 C 169.967 198.910,169.808 185.172,169.805 181.470 L 169.800 174.741 168.236 173.670 C 166.364 172.389,165.365 170.589,164.747 167.381 C 164.197 164.532,164.139 164.454,162.504 164.329 C 161.798 164.275,161.130 163.995,161.019 163.706 C 160.858 163.286,160.996 163.275,161.709 163.649 C 162.570 164.101,162.577 164.090,161.908 163.336 C 161.261 162.606,161.260 162.512,161.886 161.886 C 162.512 161.260,162.606 161.261,163.336 161.908 C 164.090 162.577,164.101 162.570,163.649 161.709 C 163.239 160.928,163.269 160.849,163.891 161.073 C 164.281 161.213,164.476 161.190,164.326 161.023 C 164.175 160.855,164.215 160.286,164.416 159.759 C 164.616 159.231,164.740 158.819,164.690 158.843 C 164.641 158.866,163.861 159.052,162.958 159.255 M162.054 162.134 C 161.681 162.584,161.707 162.755,162.177 162.936 C 162.904 163.215,163.260 162.744,162.838 162.062 C 162.597 161.671,162.426 161.687,162.054 162.134 M306.140 172.400 C 306.140 174.270,306.209 175.035,306.293 174.100 C 306.377 173.165,306.377 171.635,306.293 170.700 C 306.209 169.765,306.140 170.530,306.140 172.400 M159.076 173.100 C 158.975 173.485,158.893 173.170,158.893 172.400 C 158.893 171.630,158.975 171.315,159.076 171.700 C 159.176 172.085,159.176 172.715,159.076 173.100 M252.591 205.600 C 252.591 223.530,252.640 230.865,252.700 221.900 C 252.760 212.935,252.760 198.265,252.700 189.300 C 252.640 180.335,252.591 187.670,252.591 205.600 M159.100 228.300 C 159.036 233.085,158.984 229.170,158.984 219.600 C 158.984 210.030,159.036 206.115,159.100 210.900 C 159.163 215.685,159.163 223.515,159.100 228.300 M109.898 256.100 C 109.823 257.915,109.763 256.430,109.763 252.800 C 109.763 249.170,109.823 247.685,109.898 249.500 C 109.972 251.315,109.972 254.285,109.898 256.100 M305.328 260.800 C 305.328 262.230,305.401 262.815,305.489 262.100 C 305.578 261.385,305.578 260.215,305.489 259.500 C 305.401 258.785,305.328 259.370,305.328 260.800 M357.903 323.100 L 357.800 349.400 355.000 349.358 C 353.460 349.335,349.851 348.947,346.981 348.497 C 342.902 347.857,341.373 347.767,339.981 348.085 C 334.065 349.437,221.393 348.807,186.800 347.229 C 182.070 347.013,170.010 346.741,160.000 346.625 C 117.857 346.135,111.130 345.699,108.372 343.282 L 106.766 341.874 107.905 340.637 C 108.532 339.957,109.395 338.680,109.822 337.800 C 110.918 335.545,112.840 333.169,113.896 332.766 C 114.388 332.577,115.288 331.677,115.896 330.765 C 116.927 329.217,117.592 328.474,119.922 326.272 C 120.429 325.792,121.239 324.648,121.722 323.730 C 122.205 322.811,123.403 321.457,124.386 320.721 C 125.646 319.776,126.251 318.991,126.443 318.054 C 126.592 317.323,126.913 316.527,127.157 316.283 C 127.401 316.039,127.600 315.531,127.600 315.153 C 127.600 314.776,127.825 314.385,128.100 314.286 C 128.478 314.149,128.492 313.920,128.156 313.347 C 126.287 310.161,125.964 302.148,127.756 303.416 C 127.894 303.513,127.829 303.382,127.611 303.125 C 127.119 302.541,125.200 303.450,125.200 304.268 C 125.200 304.560,125.009 304.800,124.776 304.800 C 124.543 304.800,124.442 304.944,124.551 305.120 C 124.659 305.296,124.355 305.685,123.874 305.984 C 123.048 306.499,123.032 306.487,123.587 305.764 C 123.910 305.344,123.600 305.540,122.898 306.200 C 122.196 306.860,121.620 307.580,121.617 307.800 C 121.614 308.020,121.787 307.930,122.000 307.600 C 122.265 307.190,122.390 307.160,122.394 307.506 C 122.397 307.785,121.770 308.313,121.000 308.681 C 120.230 309.048,119.600 309.495,119.600 309.674 C 119.600 309.853,119.330 310.000,119.000 310.000 C 118.670 310.000,118.400 310.180,118.400 310.400 C 118.400 310.620,118.149 310.800,117.843 310.800 C 117.536 310.800,117.181 311.072,117.054 311.404 C 116.927 311.736,116.614 311.961,116.360 311.904 C 116.105 311.847,115.859 312.222,115.813 312.737 C 115.711 313.867,114.771 314.564,114.273 313.879 C 114.044 313.564,114.002 313.641,114.151 314.103 C 114.455 315.046,113.817 316.631,113.010 316.941 C 112.564 317.112,112.448 317.035,112.644 316.695 C 112.801 316.423,112.450 316.636,111.865 317.170 C 110.704 318.227,110.391 318.836,111.464 317.949 C 112.071 317.448,112.081 317.477,111.579 318.282 C 111.277 318.767,110.959 319.093,110.873 319.006 C 110.556 318.690,109.269 320.236,108.696 321.619 C 108.020 323.251,105.891 325.200,104.783 325.200 C 103.879 325.200,103.255 326.246,103.122 327.986 C 103.069 328.687,102.892 329.343,102.730 329.443 C 102.568 329.544,102.534 329.885,102.656 330.202 C 102.824 330.638,102.552 330.767,101.539 330.729 C 98.591 330.621,97.600 331.652,97.600 334.826 C 97.600 336.182,97.475 336.405,96.700 336.433 C 92.842 336.574,92.149 337.261,92.028 341.065 C 92.005 341.768,91.681 341.979,90.300 342.194 C 87.705 342.598,87.200 342.802,87.200 343.451 C 87.200 343.779,87.056 343.958,86.881 343.850 C 86.705 343.741,86.570 344.567,86.581 345.685 C 86.607 348.432,87.830 349.091,93.859 349.607 C 96.246 349.811,99.190 350.181,100.400 350.429 C 104.864 351.343,241.039 352.579,318.600 352.408 C 337.080 352.368,353.266 352.399,354.569 352.477 C 358.737 352.727,358.400 355.240,358.400 323.925 C 358.400 309.006,358.311 296.800,358.203 296.800 C 358.094 296.800,357.959 308.635,357.903 323.100 M279.599 299.727 C 279.600 299.907,279.195 299.929,278.700 299.777 C 278.205 299.625,277.928 299.636,278.083 299.800 C 278.239 299.965,281.749 300.132,285.883 300.171 C 290.018 300.209,293.850 300.372,294.400 300.532 L 295.400 300.823 294.400 300.331 C 293.253 299.767,279.598 299.210,279.599 299.727 M276.442 300.434 C 275.915 300.645,275.585 300.918,275.708 301.041 C 275.831 301.164,276.283 301.077,276.713 300.846 C 277.143 300.616,277.637 300.557,277.812 300.714 C 277.986 300.871,277.999 300.775,277.841 300.500 C 277.682 300.225,277.518 300.011,277.476 300.025 C 277.434 300.039,276.969 300.223,276.442 300.434 M135.062 301.531 C 134.126 302.566,134.238 303.071,135.209 302.192 C 135.974 301.499,136.092 301.496,137.422 302.130 C 138.195 302.499,139.355 302.800,140.001 302.800 C 141.894 302.800,141.031 301.716,138.748 301.226 C 136.096 300.657,135.833 300.679,135.062 301.531 M271.800 302.000 C 270.208 302.737,270.206 302.741,271.400 302.754 C 272.060 302.761,273.230 302.422,274.000 302.000 C 275.951 300.932,274.107 300.932,271.800 302.000 M135.879 325.100 C 135.786 325.265,135.596 325.879,135.457 326.464 C 135.210 327.500,132.592 329.180,131.174 329.213 C 130.235 329.235,128.800 330.664,128.800 331.577 C 128.800 333.531,127.722 335.141,126.226 335.422 C 124.541 335.738,124.189 336.127,124.988 336.790 C 126.022 337.648,131.609 336.110,134.641 334.132 C 135.764 333.399,136.957 332.800,137.293 332.800 C 138.235 332.800,140.605 331.717,141.181 331.023 C 141.465 330.680,141.998 330.400,142.366 330.400 C 143.086 330.400,146.031 327.539,146.739 326.152 C 147.143 325.362,147.048 325.288,145.330 325.052 C 142.773 324.702,136.083 324.736,135.879 325.100 " stroke="none" fill="#422c22" fill-rule="evenodd"></path><path id="path8" d="M339.600 111.241 C 338.830 111.658,337.840 112.002,337.400 112.006 C 336.238 112.015,335.911 112.334,334.276 115.051 C 333.340 116.607,332.380 117.677,331.649 117.980 C 330.935 118.275,330.097 119.190,329.449 120.381 C 328.610 121.923,327.972 122.509,326.245 123.327 C 324.603 124.104,323.864 124.755,323.144 126.056 C 322.580 127.076,321.358 128.336,320.110 129.182 C 318.839 130.044,317.850 131.070,317.585 131.800 C 317.346 132.460,316.780 133.759,316.327 134.686 C 315.425 136.533,315.434 139.807,316.363 147.400 C 316.829 151.209,317.426 161.775,317.979 176.000 C 318.163 180.730,318.516 187.840,318.764 191.800 C 319.012 195.760,319.257 200.080,319.307 201.400 C 319.358 202.720,319.821 189.760,320.335 172.600 C 321.354 138.597,321.664 134.927,323.625 133.601 C 325.588 132.273,327.218 130.408,327.457 129.217 C 327.653 128.237,328.117 127.744,329.554 126.989 C 331.981 125.714,332.800 125.040,332.800 124.318 C 332.800 122.043,340.729 121.181,341.610 123.360 C 341.866 123.995,341.955 123.718,341.975 122.226 C 341.989 121.141,342.348 119.521,342.773 118.626 C 345.203 113.510,343.355 109.208,339.600 111.241 M341.481 128.800 C 341.325 130.230,341.342 132.300,341.519 133.400 L 341.840 135.400 342.085 132.800 C 342.220 131.370,342.203 129.300,342.048 128.200 L 341.765 126.200 341.481 128.800 M173.891 158.689 C 174.601 158.777,175.861 158.779,176.691 158.692 C 177.521 158.605,176.940 158.533,175.400 158.531 C 173.860 158.529,173.181 158.600,173.891 158.689 M229.000 158.800 C 233.849 158.945,235.514 159.086,233.600 159.189 L 230.600 159.351 233.000 159.479 C 237.859 159.736,238.717 160.545,234.100 160.516 L 231.400 160.499 233.600 160.784 L 235.800 161.070 233.000 161.205 L 230.200 161.341 233.000 161.582 C 235.166 161.768,235.570 161.893,234.786 162.133 C 232.632 162.793,233.518 163.932,236.386 164.191 C 237.824 164.321,239.720 164.511,240.600 164.613 C 241.480 164.715,242.402 164.664,242.648 164.499 C 243.243 164.102,243.569 161.202,243.020 161.194 C 242.789 161.191,242.844 161.033,243.143 160.844 C 243.527 160.600,243.554 160.419,243.236 160.222 C 242.989 160.070,242.891 159.777,243.017 159.572 C 243.265 159.171,242.425 159.065,239.600 159.142 C 238.218 159.179,237.986 159.105,238.600 158.823 C 239.109 158.590,236.131 158.477,230.400 158.515 L 221.400 158.573 229.000 158.800 M229.030 174.260 C 226.859 175.016,226.857 175.030,228.731 176.634 C 229.649 177.419,230.400 178.299,230.400 178.589 C 230.400 178.878,231.307 180.079,232.416 181.258 C 235.227 184.244,235.480 184.860,235.845 189.605 L 236.168 193.800 236.497 190.014 C 236.678 187.932,237.090 185.451,237.413 184.500 C 238.676 180.780,237.818 178.032,235.143 177.230 C 234.141 176.930,233.405 176.384,233.032 175.663 C 232.192 174.037,230.937 173.597,229.030 174.260 " stroke="none" fill="#b4acbc" fill-rule="evenodd"></path></g></svg>